<?xml version="1.0" encoding="utf-8"?>
<!-- Generator: Adobe Illustrator 22.1.0, SVG Export Plug-In . SVG Version: 6.00 Build 0)  -->
<svg version="1.1" id="svg2608" xmlns:svg="http://www.w3.org/2000/svg"
	 xmlns="http://www.w3.org/2000/svg" xmlns:xlink="http://www.w3.org/1999/xlink" x="0px" y="0px" viewBox="0 0 600 600"
	 xstyle="enable-background:new 0 0 600 588.4;" xml:space="preserve">
<style type="text/css">
	
				/* ORIGINAL COLORS: */
			.upper-semicircle{ fill:#FFFFFF;stroke:#000000;stroke-width:2; }
			.lower-semicircle{ fill:#FFFFFF;stroke:#000000;stroke-width:2; }
			.eagle{ fill: #CFAE66; stroke: black; }
			
			
	.tongue{ fill:black; }
	.body{ fill:black; }
	.claw, .pupil, .eye, .nose, .neck, .ear { fill:black; }
	.ear, .eye { fill:white; }
	.pupil { fill:black; }
	
	.tongue, .body, .claw, .pupil, .nose, .neck, .ear { xstroke: black; stroke-width: 0.2; }

</style>

	<g transform="translate(300,300)">
	<g transform="scale(1.3)">
	<g transform="translate(-300,-300)">
	<g transform="translate(150,-145)">
		<g
			transform="matrix(5.5344631,0,0,5.5344631,61.994977,173.59391)"
			id="nsk-left-sable"
			>
			
			<path
				d="M 14.5211,23.0786 C 14.9685,23.046 16.3035,23.4906 16.8185,23.1652 C 17.3012,22.7673 17.797,22.6446 18.1428,23.1792 C 18.4517,23.398 18.9537,23.1284 19.3013,23.0908 C 19.2562,23.6075 18.9602,24.2464 18.2587,24.0917 C 17.7985,24.0347 17.7436,23.6604 17.2545,23.6157 C 16.8315,23.6395 16.6552,23.9565 16.2998,23.9803 C 16.0416,23.9269 15.9898,23.7077 15.6333,23.6636 C 15.073,23.5943 14.4816,23.4029 14.5211,23.0786 L 14.5211,23.0786 z"
				class="tongue"
				id="tongue"
			/>
	  
			<path
				d="M 14.0961,37.1354 L 14.1229,37.1184 C 12.9592,33.6604 10.8194,30.4969 7.525,27.3445 C 6.2345,25.8164 5.3989,24.2857 5.3541,22.2973 C 5.3541,20.9866 6.0752,19.251 7.6176,18.4686 C 7.5455,18.9555 7.4886,19.5275 7.7462,19.9862 C 7.6674,18.6264 7.6573,17.4797 8.6225,16.7715 C 9.5092,16.2884 10.6017,17.0223 10.8977,18.1397 C 10.9247,17.6765 11.2814,16.7319 11.652,16.8635 C 12.1377,16.8586 11.9503,17.8876 12.3125,18.3642 C 13.9514,18.8856 15.2288,19.7546 16.5153,20.6853 C 17.0627,21.1124 17.0858,21.2038 17.1522,21.7775 C 17.27,23.2506 16.3476,23.3105 14.6041,22.9829 C 14.2266,23.3026 15.1582,23.6077 15.55,23.6639 C 15.5867,23.937 15.4887,24.2 15.218,24.2767 C 14.1202,24.4391 13.6656,24.3658 12.549,24.3164 C 11.8415,24.359 11.6409,25.5573 12.9064,26.1571 C 17.101,27.8925 19.5332,30.0049 21.8332,32.4084 L 21.9184,32.4436 C 21.9164,32.4412 21.9145,32.4388 21.9124,32.4363 C 24.5927,33.4229 28.3386,33.3172 27.5635,28.0673 C 26.2394,26.0269 27.6818,24.4983 28.5898,24.4518 C 28.5698,24.6145 28.7128,24.7958 28.9426,24.7966 C 29.0083,24.73 29.0626,24.6683 29.1137,24.6147 C 29.2391,24.619 29.3496,24.6528 29.4468,24.7127 C 29.3567,24.7271 29.2734,24.7528 29.2002,24.786 C 28.917,24.9337 29.0679,25.3275 29.4067,25.3287 C 29.5379,25.1959 29.624,25.0826 29.7284,25.014 C 29.8,25.1345 29.8588,25.2795 29.906,25.4452 C 29.7363,25.426 29.5778,25.4573 29.4535,25.5137 C 29.21,25.6406 29.3397,25.9794 29.6311,25.9804 C 29.7659,25.8439 29.8454,25.7312 29.9625,25.6797 C 30.3257,27.4693 29.6649,31.0516 29.4483,32.7865 C 28.725,35.6017 25.059,37.9445 25.0302,37.8632 C 24.339,35.9171 23.6813,34.6748 22.581,33.2578 C 24.0778,35.4416 24.7041,37.4157 25.527,39.701 C 26.1853,41.1409 27.1126,40.3357 27.5313,39.1884 C 27.8293,38.3344 28.4033,36.696 29.6436,36.5458 C 29.9548,36.4419 30.3424,36.4389 30.6494,36.5937 C 30.6482,36.5939 30.647,36.5941 30.6457,36.5943 C 30.4651,36.7709 30.4283,36.9229 30.58,37.0853 C 30.7078,37.1485 30.8871,37.1254 31.095,37.0907 C 31.1259,37.1727 31.1483,37.2637 31.1606,37.3646 C 31.0484,37.355 30.9277,37.3637 30.7943,37.3975 C 30.6305,37.5907 30.6078,37.7457 30.7741,37.8935 C 30.8842,37.9356 31.0236,37.9155 31.1837,37.8768 C 31.1897,37.9569 31.1946,38.0383 31.1986,38.1203 C 31.1042,38.0996 31.0015,38.0899 30.8878,38.0937 C 30.666,38.2639 30.6056,38.426 30.751,38.625 C 30.8623,38.6979 31.0213,38.708 31.2079,38.7035 C 31.2065,38.7849 31.2041,38.8659 31.2002,38.9456 C 31.0849,38.9198 30.9581,38.9128 30.8142,38.932 C 30.6295,39.1051 30.5893,39.2566 30.7378,39.4227 C 30.8441,39.4782 30.9878,39.4733 31.1548,39.4526 C 31.0903,39.921 30.9648,40.2838 30.7596,40.3848 C 30.3342,40.7577 29.3934,40.6153 28.8656,41.1416 C 27.9208,42.1971 28.1556,45.1565 26.3288,45.1424 C 24.6744,44.9698 23.625,43.4421 21.9359,41.2013 C 22.3257,42.1304 22.4904,42.899 23.4163,43.632 C 22.0595,48.9265 20.5826,49.6582 18.6975,52.4124 C 17.2559,54.7057 15.5256,56.5033 15.4051,60.402 C 15.224,62.3665 15.9273,63.8646 15.6265,66.1484 C 15.4886,67.2922 15.2034,69.6765 13.1748,70.9721 C 11.4126,72.4524 8.644,71.5533 6.6854,72.6285 C 6.0043,73.1662 5.4949,74.9693 5.8206,76.6968 C 5.7888,77.122 6.217,77.625 6.6564,77.5877 C 8.5721,77.3612 10.0459,77.7678 10.341,79.0348 C 10.4256,80.2055 7.0973,81.4269 5.8561,81.1297 C 4.5214,80.8536 3.6534,78.7806 3.4237,77.3406 C 3.4385,75.7509 3.4534,74.1613 3.4684,72.5717 C 3.6881,69.5997 7.6462,71.2435 6.9741,66.228 C 6.4222,64.0481 6.6653,63.0023 7.4383,61.0494 C 7.4932,58.2644 7.2831,55.7517 9.0602,53.239 C 11.7169,48.0925 15.418,43.3547 14.0961,37.1354 L 14.0961,37.1354 z M 1.842,29.1895 C 2.2589,28.4726 3.1761,28.0247 3.9568,28.5466 C 4.827,29.3382 4.7203,29.5441 5.3772,30.6292 C 5.6311,31.0486 6.2173,31.565 6.8046,32.2678 C 8.0805,33.7947 9.5139,36.7948 9.8264,38.8076 C 10.5752,42.3209 9.2711,45.4576 7.894,47.9918 C 6.9471,49.4967 5.9068,50.9245 5.0535,52.5066 C 4.4413,53.7613 3.8152,54.7787 3.8332,56.4446 C 3.8647,57.4462 4.1423,58.3922 5.4721,58.1535 C 6.02,58.0762 6.4797,57.6111 6.978,56.9962 C 7.093,56.8544 7.3204,56.7044 7.4259,56.5495 C 7.2503,58.0322 7.4892,59.5572 6.8972,60.7006 C 6.2093,61.4454 5.4229,61.8087 4.2612,61.8158 C 2.8053,61.9669 1.3962,61.1856 0.7898,59.4807 C -1.2717,53.684 1.9941,43.5733 2.0671,39.4295 C 2.1575,34.3036 0.2452,31.2847 1.842,29.1895 L 1.842,29.1895 z M 15.9123,63.0172 C 15.3496,57.7685 16.6101,55.7106 18.4783,53.0977 C 18.0042,55.1794 17.8678,56.4981 19.8922,57.0536 C 25.1035,59.7769 25.6555,62.3613 23.7766,70.0788 C 23.199,71.2691 24.4583,73.3337 25.9193,74.5238 C 27.6189,74.7351 29.6771,74.1409 30.2344,75.9631 C 30.2461,77.5088 28.8914,78.6863 26.5734,78.437 C 22.9518,77.4012 22.9368,73.9262 20.5249,71.5098 C 20.6595,69.9367 21.4887,69.1001 20.369,67.7343 C 19.3315,66.185 16.5885,66.1368 15.9123,63.0172 L 15.9123,63.0172 z"
				class="body"
				id="body"
			/>
	  
			<path
				d="M 30.4822,25.7312 C 29.9472,25.5384 29.8948,25.7133 29.6311,25.9804 C 29.3397,25.9794 29.21,25.6406 29.4535,25.5137 C 29.7166,25.3942 30.1333,25.3889 30.4822,25.7312 z"
				class="claw"
				id="claw_front_left_4"
			/>
				
			<path
				d="M 7.4379,80.5783 C 7.6005,80.3933 7.7971,80.3998 8.06,80.5456 C 8.2893,81.0508 8.0314,81.4119 7.8108,81.7868 C 7.738,81.2872 7.345,80.863 7.4379,80.5783 z"
				class="claw"
				id="claw_back_right_4"
			/>
			<path
				d="M 27.3506,77.9601 C 27.5145,77.7255 27.7127,77.7337 27.9778,77.9186 C 28.209,78.559 27.9491,79.0167 27.7265,79.4919 C 27.6532,78.8586 27.2569,78.321 27.3506,77.9601 L 27.3506,77.9601 z"
				class="claw"
				id="claw_back_left_4"
			/>
			<path
				d="M 28.2531,77.9321 C 28.2998,77.565 28.8684,77.5002 28.9753,77.8157 C 29.1743,78.4892 28.7741,78.85 28.5517,79.3251 C 28.634,78.4794 28.3415,78.5856 28.2531,77.9321 z"
				class="claw"
				id="claw_back_left_3"
			/>
			<path
				d="M 29.137,77.3671 C 29.1662,77.1313 29.6897,76.9513 29.7916,77.2684 C 29.9811,77.9455 29.5398,78.2418 29.3279,78.7195 C 29.5539,77.8985 29.1597,77.9573 29.137,77.3671 z"
				class="claw"
				id="claw_back_left_2"
			/>
			<path
				d="M 29.8213,76.6963 C 29.8484,76.4794 30.1411,76.1625 30.3465,76.6165 C 30.5859,77.223 30.1124,77.5117 29.9153,77.951 C 30.2187,77.0439 29.6972,77.0732 29.8213,76.6963 z"
				class="claw"
				id="claw_back_left_1"
			/>
			<path
				d="M 9.8885,79.5812 C 9.9154,79.4101 10.2058,79.1602 10.4094,79.5183 C 10.6469,79.9968 10.1772,80.2245 9.9818,80.5711 C 10.2827,79.8555 9.7654,79.8787 9.8885,79.5812 z"
				class="claw"
				id="claw_back_right_1"
			/>
			<path
				d="M 9.2098,80.1105 C 9.2387,79.9245 9.758,79.7824 9.859,80.0327 C 10.0471,80.5668 9.6093,80.8005 9.3991,81.1774 C 9.6233,80.5297 9.2323,80.5761 9.2098,80.1105 L 9.2098,80.1105 z"
				class="claw"
				id="claw_back_right_2"
			/>
			<path
				d="M 8.2708,80.4674 C 8.3209,80.1543 8.9304,80.0991 9.045,80.3681 C 9.2584,80.9424 8.8294,81.25 8.5909,81.6552 C 8.6792,80.9341 8.3656,81.0246 8.2708,80.4674 z"
				class="claw"
				id="claw_back_right_3"
			/>
			<path
				d="M 30.7378,39.4227 C 30.5893,39.2566 30.6295,39.1051 30.8142,38.932 C 31.3363,38.8622 31.6365,39.1402 31.9563,39.3923 C 31.4666,39.3416 30.9935,39.5562 30.7378,39.4227 z"
				class="claw"
				id="claw_front_right_4"
			/>
			<path
				d="M 30.58,37.0853 C 30.4283,36.9229 30.4651,36.7709 30.6457,36.5943 C 31.165,36.5133 31.4702,36.7841 31.7944,37.0286 C 31.3051,36.9886 30.8378,37.2129 30.58,37.0853 z"
				class="claw"
				id="claw_front_right_1"
			/>
			<path
				d="M 30.7741,37.8935 C 30.6078,37.7457 30.6305,37.5907 30.7943,37.3975 C 31.3046,37.2678 31.6342,37.5091 31.9801,37.7225 C 31.4883,37.7287 31.0431,37.9963 30.7741,37.8935 z"
				class="claw"
				id="claw_front_right_2"
			/>
			<path
				d="M 30.751,38.625 C 30.6056,38.426 30.666,38.2639 30.8878,38.0937 C 31.4695,38.0742 31.7696,38.4129 32.0941,38.7251 C 31.5611,38.6157 31.0179,38.7998 30.751,38.625 z"
				class="claw"
				id="claw_front_right_3"
			/>
			<path
				d="M 9.1533,17.9159 C 9.4909,17.6992 9.9848,18.0912 9.9765,18.6651 C 9.3713,18.5532 9.1915,18.8394 9.0857,19.6913 C 8.6496,19.2729 8.6427,18.2109 9.1533,17.9159 z"
				class="ear"
				id="ear"
			/>
			<path
				d="M 11.9927,24.8067 C 12.1187,24.324 12.4534,24.2722 13.2061,24.3573 C 12.7638,24.389 12.7144,24.9081 12.9788,25.2244 C 13.774,26.1755 16.0765,27.381 17.8443,28.8168 C 16.2864,27.6856 14.5196,26.7992 12.6295,26.0105 C 12.1577,25.7169 11.8949,25.3743 11.9927,24.8067 L 11.9927,24.8067 z"
				class="neck"
				id="neck"
			/>
			<path
				d="M 16.6233,20.7222 C 16.976,20.8403 17.3625,20.8197 17.6401,21.1896 C 17.9367,21.9185 17.2361,22.4455 17.172,22.2802 C 17.1628,22.0266 17.19,21.6604 17.0468,21.5887 C 16.8962,21.5281 16.8126,21.7621 16.7654,21.8959 C 16.6005,21.6126 16.5821,21.3311 16.6233,20.7222 z"
				class="nose"
				id="nose"
			/>
			<path
				d="M 13.5533,19.8606 C 14.0454,20.0722 14.2712,20.3475 14.2292,20.7437 C 14.1871,21.1399 13.4862,21.0587 12.9941,20.8471 C 12.5019,20.6355 12.3189,20.259 12.4451,19.9491 C 12.5713,19.6394 13.0611,19.649 13.5533,19.8606 z"
				class="eye"
				id="eye"
			/>
			<path
				d="M 13.4538,19.997 C 13.6605,19.997 13.8292,20.1561 13.8292,20.3514 C 13.8292,20.5465 13.6605,20.7056 13.4538,20.7056 C 13.2469,20.7056 13.0782,20.5465 13.0782,20.3514 C 13.0782,20.1561 13.2469,19.997 13.4538,19.997 z"
				class="pupil"
				id="pupil"
			/>
			<path
				d="M 29.9323,24.5069 C 29.3103,24.2825 29.2494,24.4859 28.9426,24.7966 C 28.6038,24.7954 28.453,24.4015 28.7361,24.2539 C 29.042,24.1149 29.5266,24.1087 29.9323,24.5069 L 29.9323,24.5069 z"
				class="claw"
				id="claw_front_left_1"
			/>
			<path
				d="M 30.3964,25.039 C 29.7744,24.8148 29.7135,25.0182 29.4067,25.3287 C 29.0679,25.3275 28.917,24.9337 29.2002,24.786 C 29.5061,24.6471 29.9906,24.6409 30.3964,25.039 L 30.3964,25.039 z"
				class="claw"
				id="claw_front_left_2"
			/>
      
		</g>
	</g>
	</g>
	</g>
	
	</g>
	
	<g transform="translate(300,275)">
	<g transform="scale(3.1)">
	<g transform="translate(-465,-470)">
	<g id="original-logo" transform="translate(-0.5,-7.75)">
	
		<!--<rect x="330" y="345" width="270" height="270"/>-->
		<g class="semicircles" id="semicircles">
			<path
				id    = "upper-semicircle"
				class = "upper-semicircle"
				d     = "M402.1,440.3c16.2,-23,42.7,-36.7,70.9,-36.7c12.4,0,24.6,2.7,35.8,7.8c-.5,-.5,-1.1,-.9,-1.7,-1.3C492.6,399.8,475.6,394.4,457.9,394.4c-27.7,0,-53.7,13.5,-69.7,36.1c-13.2,18.6,-18.3,41.2,-14.4,63.7c3.8,22.4,16.2,42.1,34.8,55.2c.6,.4,1.1,.8,1.7,1.2C381.6,520.8,377.7,474.7,402.1,440.3Z"
			/>
			
			<path
				id    = "lower-semicircle"
				class = "lower-semicircle"
				d     = "M528.8,529.9c-16.3,23,-42.8,36.7,-71,36.7c-12.4,0,-24.6,-2.7,-35.8,-7.8c.5,.5,1.1,.9,1.7,1.3c14.5,10.2,31.5,15.7,49.2,15.7c27.7,0,53.7,-13.5,69.7,-36.1c13.2,-18.6,18.3,-41.2,14.5,-63.7c-3.9,-22.4,-16.3,-42.1,-34.9,-55.2c-.5,-.4,-1.1,-.8,-1.7,-1.2c28.7,29.7,32.6,75.9,8.3,110.3Z"
			/>
		</g>
	</g>

	</g>
	</g>
	</g>
</svg>
