<?xml version="1.0" encoding="utf-8"?>
<!-- Generator: Adobe Illustrator 22.0.1, SVG Export Plug-In . SVG Version: 6.00 Build 0)  -->
<svg version="1.1" id="lpr" xmlns="http://www.w3.org/2000/svg" xmlns:xlink="http://www.w3.org/1999/xlink" x="0px" y="0px"
	 viewBox="0 0 496 496" style="enable-background:new 0 0 496 496;" xml:space="preserve">
<style type="text/css">
	.st0{fill:#1B1B1B;}
	.st1{fill:#D8B35F;}
	.st2{fill:#FFFFFF;}
</style>
<rect id="Rectangle" x="-0.1" class="st0" width="497" height="497"/>
<g id="right">
	<path class="st1" d="M136.7,175.4c-3.3-9.1-5.2-14.8-5.8-18.2c-0.8-3.8-2.7-9.2-5.2-14.6c-3.9,4.3-7.6,8.9-11,13.8
		c-22.4,31.7-31.1,70.3-24.5,108.7c6.5,38.3,27.6,71.8,59.2,94.3c1,0.7,1.9,1.4,2.9,2C104.1,311.3,97.1,233.8,136.7,175.4z"/>
	<path class="st1" d="M179.6,106.1c4.8,6.4,9.8,12.8,15,19.3c19.8-9.6,41.8-14.8,64.3-14.8c21,0,41.8,4.5,60.9,13.2
		c-1-0.7-2-1.4-2.9-2.1c-24.6-17.5-53.5-26.7-83.6-26.7c-18.8,0-37.1,3.7-54.1,10.5C179.2,105.7,179.4,105.9,179.6,106.1z"/>
</g>
<g id="left">
	<path class="st1" d="M328.8,373.2c-2.3-1.2-5.4-2.6-9.4-4.2c-2-0.8-4.2-1.6-6.8-2.6c-0.3-0.1-0.7-0.3-1.2-0.4
		c-23.2,14.6-50.3,22.7-78.5,22.7h0c-21,0-41.8-4.5-60.9-13.2c1,0.7,1.9,1.4,2.9,2.1c24.6,17.5,53.5,26.7,83.6,26.7
		c28.8,0,56.6-8.6,80.1-24.2C335.8,377.5,332.3,375.1,328.8,373.2z"/>
	<path class="st1" d="M360,316.2c2.5,2.3,4.4,4,5.2,5c2.3,2.6,6.9,6.7,16.5,14.9c19-30.4,26.1-66.2,20-101.9
		c-6.5-38.3-27.6-71.8-59.2-94.3c-1-0.7-1.9-1.4-2.9-2C385.7,185.8,394,258.8,360,316.2z"/>
</g>
<path id="white" class="st2" d="M181.9,274.9c-9.1-0.4-20.4-2.8-22.6-0.3c-2.8,3.3-4.2,17.3-2.3,22.5c0.5,1.4,7.8-0.8,8.2,0.4
	c0,0-4.7,15.8-2.2,19.8c2.4,3.8,14.8,12.3,17.8,16.1c1.5,1.9,18.7,7.6,21.2,8.3c5.1,1.4,12.9-11.2,17.1-9.1c0,0-1.9,6.5,0.4,6.6
	c2.2,1.2,7.4,1.4,8.9,0c2.8-3.4,10.6-39,10.6-39s10.6,10.1,14.3,15.7c10.4,15.6,21.6,12.2,25.5,12.5l-4.6,9.3
	c5.9,3,11.5,9.8,20.2,14.3c6.4,3.3,27.6,9.8,37.6,15.1c8,4.2,16,11.4,19.3,17.5c3.1,5.8,5.6,4.8,5.6,4.8s-0.8-3.2-2-6.8
	c-2-6.1,2-5.8,2-5.8s7.6,13.5,8.2,16.5c1.6,7.1,5.9,12.4,5.9,12.4s2.1-11.9,0.8-19.4c-1.7-10.3,0.8-9.5,0.8-9.5s6.2,8.3,9.4,16.2
	c4.2,10.3,9.2,9.1,9.2,9.1s-3.6-13.3-5.4-17.7c-2.8-7.1,0.2-8.4,0.2-8.4s11.2,12.8,15.7,16.4c3.7,3,7.5,1.5,7.5,1.5
	s-7.8-11.8-9.1-13.9c-3.1-4.8-2.5-6.5-2.5-6.5s8.2,3.8,13.4,9c5.2,5.2,7.1,1.4,7.1,1.4s-13.3-15.6-17.8-21.5
	c-4.6-5.9-33.3-28.6-40.5-36.5c-3.8-4.2-31-27.5-39.9-34.5c-8.9-6.9-14.7-10.7-14.7-10.7s1.4-4.1,2.7-6.7c1.4-2.6,2.3-8.4,2.3-8.4
	s8.1-3.1,10.7-3c2.6,0.1,6,1.4,6,1.4s1.4-6.4-4-9.1c-5.4-2.8-13.2-6.8-14.3-7.6c-3.2-2.2-26.9,6.4-41.7-8.4
	c-9.5-9.5-38.8-62.3-58.6-85.5c-8.1-9.5-21.8-25.9-34.5-43c-18.5-24.7-29.9-47.4-32.9-51.5c0,0-0.9,7.7,2.8,14.3
	c3.7,6.6,17.3,29.2,17.3,29.2s-3.1,0.6-5.6-2c-2.6-2.6-29.6-36-29.6-36s-1.1,6.5,1.4,9.9c2.8,3.8,22.2,30,22.2,30s-5.1-0.9-7.7-3.4
	c-2.5-2.5-31.4-27.2-31.4-27.2s-1.3,4.7,5,11.4c2,2.2,23.4,25.2,23.4,25.2s-7.4-1.8-10.5-4.9c-3.1-3.1-22.8-9.9-22.8-9.9
	s0.4,2.3,2.9,4.9c3.4,3.5,9.7,8.1,13.8,14l-7.4-1.5c0.3,1.7,6.3,7.8,11.3,15.6c5.9,9.3,10.5,20.9,11.8,27.6
	c1.5,7.3,11.1,31.7,12.4,36.3c4.5,16.5,29.9,30,29.9,30c0.8,3.8-1.9,7.2-1.9,7.2c16.4,13.2,29.6,34,33.2,38.1
	c3.7,4.1,12.9,6.9,12.9,6.9S188.7,275.2,181.9,274.9z"/>
</svg>
