<?xml version="1.0" encoding="utf-8"?>
<!-- Generator: Adobe Illustrator 22.1.0, SVG Export Plug-In . SVG Version: 6.00 Build 0)  -->
<svg version="1.1" id="svg2608" xmlns:svg="http://www.w3.org/2000/svg"
	 xmlns="http://www.w3.org/2000/svg" xmlns:xlink="http://www.w3.org/1999/xlink" x="0px" y="0px" viewBox="0 0 600 588.4"
	 style="enable-background:new 0 0 600 588.4;" xml:space="preserve">
<style type="text/css">
	.st0{fill:#BA9A56;}
	.st1{fill-rule:evenodd;clip-rule:evenodd;fill:#BA9A56;}
</style>
<g id="layer1" transform="translate(150,-150)">
	<g id="g2548" transform="matrix(5.5344631,0,0,5.5344631,61.994977,173.59391)">
		<path id="_138423920" class="st0" d="M14.5,23.1c0.4,0,1.8,0.4,2.3,0.1c0.5-0.4,1-0.5,1.3,0c0.3,0.2,0.8-0.1,1.2-0.1
			c0,0.5-0.3,1.2-1,1c-0.5-0.1-0.5-0.4-1-0.5c-0.4,0-0.6,0.3-1,0.4c-0.3-0.1-0.3-0.3-0.7-0.3C15.1,23.6,14.5,23.4,14.5,23.1
			L14.5,23.1z"/>
		<path id="_138435280" class="st0" d="M14.1,37.1L14.1,37.1c-1.1-3.5-3.3-6.6-6.6-9.8c-1.3-1.5-2.1-3.1-2.2-5c0-1.3,0.7-3,2.3-3.8
			C7.5,19,7.5,19.5,7.7,20c-0.1-1.4-0.1-2.5,0.9-3.2c0.9-0.5,2,0.3,2.3,1.4c0-0.5,0.4-1.4,0.8-1.3c0.5,0,0.3,1,0.7,1.5
			c1.6,0.5,2.9,1.4,4.2,2.3c0.5,0.4,0.6,0.5,0.6,1.1c0.1,1.5-0.8,1.5-2.5,1.2c-0.4,0.3,0.6,0.6,0.9,0.7c0,0.3-0.1,0.5-0.3,0.6
			c-1.1,0.2-1.6,0.1-2.7,0c-0.7,0-0.9,1.2,0.4,1.8c4.2,1.7,6.6,3.8,8.9,6.3l0.1,0c0,0,0,0,0,0c2.7,1,6.4,0.9,5.7-4.4
			c-1.3-2,0.1-3.6,1-3.6c0,0.2,0.1,0.3,0.4,0.3c0.1-0.1,0.1-0.1,0.2-0.2c0.1,0,0.2,0,0.3,0.1c-0.1,0-0.2,0-0.2,0.1
			c-0.3,0.1-0.1,0.5,0.2,0.5c0.1-0.1,0.2-0.2,0.3-0.3c0.1,0.1,0.1,0.3,0.2,0.4c-0.2,0-0.3,0-0.5,0.1c-0.2,0.1-0.1,0.5,0.2,0.5
			c0.1-0.1,0.2-0.2,0.3-0.3c0.4,1.8-0.3,5.4-0.5,7.1c-0.7,2.8-4.4,5.2-4.4,5.1c-0.7-1.9-1.3-3.2-2.4-4.6c1.5,2.2,2.1,4.2,2.9,6.4
			c0.7,1.4,1.6,0.6,2-0.5c0.3-0.9,0.9-2.5,2.1-2.6c0.3-0.1,0.7-0.1,1,0c0,0,0,0,0,0c-0.2,0.2-0.2,0.3-0.1,0.5c0.1,0.1,0.3,0,0.5,0
			c0,0.1,0.1,0.2,0.1,0.3c-0.1,0-0.2,0-0.4,0c-0.2,0.2-0.2,0.3,0,0.5c0.1,0,0.2,0,0.4,0c0,0.1,0,0.2,0,0.2c-0.1,0-0.2,0-0.3,0
			c-0.2,0.2-0.3,0.3-0.1,0.5c0.1,0.1,0.3,0.1,0.5,0.1c0,0.1,0,0.2,0,0.2c-0.1,0-0.2,0-0.4,0c-0.2,0.2-0.2,0.3-0.1,0.5
			c0.1,0.1,0.3,0.1,0.4,0c-0.1,0.5-0.2,0.8-0.4,0.9c-0.4,0.4-1.4,0.2-1.9,0.8c-0.9,1.1-0.7,4-2.5,4c-1.7-0.2-2.7-1.7-4.4-3.9
			c0.4,0.9,0.6,1.7,1.5,2.4c-1.4,5.3-2.8,6-4.7,8.8c-1.4,2.3-3.2,4.1-3.3,8c-0.2,2,0.5,3.5,0.2,5.7c-0.1,1.1-0.4,3.5-2.5,4.8
			c-1.8,1.5-4.5,0.6-6.5,1.7C6,73.2,5.5,75,5.8,76.7c0,0.4,0.4,0.9,0.8,0.9c1.9-0.2,3.4,0.2,3.7,1.4c0.1,1.2-3.2,2.4-4.5,2.1
			c-1.3-0.3-2.2-2.3-2.4-3.8c0-1.6,0-3.2,0-4.8c0.2-3,4.2-1.3,3.5-6.3C6.4,64,6.7,63,7.4,61c0.1-2.8-0.2-5.3,1.6-7.8
			C11.7,48.1,15.4,43.4,14.1,37.1L14.1,37.1z M1.8,29.2C2.3,28.5,3.2,28,4,28.5c0.9,0.8,0.8,1,1.4,2.1c0.3,0.4,0.8,0.9,1.4,1.6
			c1.3,1.5,2.7,4.5,3,6.5c0.7,3.5-0.6,6.7-1.9,9.2c-0.9,1.5-2,2.9-2.8,4.5c-0.6,1.3-1.2,2.3-1.2,3.9c0,1,0.3,1.9,1.6,1.7
			C6,58.1,6.5,57.6,7,57c0.1-0.1,0.3-0.3,0.4-0.4c-0.2,1.5,0.1,3-0.5,4.2c-0.7,0.7-1.5,1.1-2.6,1.1c-1.5,0.2-2.9-0.6-3.5-2.3
			C-1.3,53.7,2,43.6,2.1,39.4C2.2,34.3,0.2,31.3,1.8,29.2L1.8,29.2z M15.9,63c-0.6-5.2,0.7-7.3,2.6-9.9c-0.5,2.1-0.6,3.4,1.4,4
			c5.2,2.7,5.8,5.3,3.9,13c-0.6,1.2,0.7,3.3,2.1,4.4c1.7,0.2,3.8-0.4,4.3,1.4c0,1.5-1.3,2.7-3.7,2.5c-3.6-1-3.6-4.5-6-6.9
			c0.1-1.6,1-2.4-0.2-3.8C19.3,66.2,16.6,66.1,15.9,63L15.9,63z"/>
		<path id="_138427760" class="st0" d="M30.5,25.7c-0.5-0.2-0.6,0-0.9,0.2c-0.3,0-0.4-0.3-0.2-0.5C29.7,25.4,30.1,25.4,30.5,25.7z
			 M7.4,80.6c0.2-0.2,0.4-0.2,0.6,0c0.2,0.5,0,0.9-0.2,1.2C7.7,81.3,7.3,80.9,7.4,80.6z M27.4,78c0.2-0.2,0.4-0.2,0.6,0
			c0.2,0.6,0,1.1-0.3,1.6C27.7,78.9,27.3,78.3,27.4,78L27.4,78z M28.3,77.9c0-0.4,0.6-0.4,0.7-0.1c0.2,0.7-0.2,1-0.4,1.5
			C28.6,78.5,28.3,78.6,28.3,77.9z M29.1,77.4c0-0.2,0.6-0.4,0.7-0.1c0.2,0.7-0.3,1-0.5,1.5C29.6,77.9,29.2,78,29.1,77.4z
			 M29.8,76.7c0-0.2,0.3-0.5,0.5-0.1c0.2,0.6-0.2,0.9-0.4,1.3C30.2,77,29.7,77.1,29.8,76.7z M9.9,79.6c0-0.2,0.3-0.4,0.5-0.1
			c0.2,0.5-0.2,0.7-0.4,1.1C10.3,79.9,9.8,79.9,9.9,79.6z M9.2,80.1c0-0.2,0.5-0.3,0.6-0.1c0.2,0.5-0.2,0.8-0.5,1.1
			C9.6,80.5,9.2,80.6,9.2,80.1L9.2,80.1z M8.3,80.5c0.1-0.3,0.7-0.4,0.8-0.1c0.2,0.6-0.2,0.9-0.5,1.3C8.7,80.9,8.4,81,8.3,80.5z
			 M30.7,39.4c-0.1-0.2-0.1-0.3,0.1-0.5c0.5-0.1,0.8,0.2,1.1,0.5C31.5,39.3,31,39.6,30.7,39.4z M30.6,37.1c-0.2-0.2-0.1-0.3,0.1-0.5
			c0.5-0.1,0.8,0.2,1.1,0.4C31.3,37,30.8,37.2,30.6,37.1z M30.8,37.9c-0.2-0.1-0.1-0.3,0-0.5c0.5-0.1,0.8,0.1,1.2,0.3
			C31.5,37.7,31,38,30.8,37.9z M30.8,38.6c-0.1-0.2-0.1-0.4,0.1-0.5c0.6,0,0.9,0.3,1.2,0.6C31.6,38.6,31,38.8,30.8,38.6z M9.2,17.9
			c0.3-0.2,0.8,0.2,0.8,0.7c-0.6-0.1-0.8,0.2-0.9,1C8.6,19.3,8.6,18.2,9.2,17.9z M12,24.8c0.1-0.5,0.5-0.5,1.2-0.4
			c-0.4,0-0.5,0.6-0.2,0.9c0.8,1,3.1,2.2,4.9,3.6c-1.6-1.1-3.3-2-5.2-2.8C12.2,25.7,11.9,25.4,12,24.8L12,24.8z M16.6,20.7
			c0.4,0.1,0.7,0.1,1,0.5c0.3,0.7-0.4,1.3-0.5,1.1c0-0.3,0-0.6-0.1-0.7c-0.2-0.1-0.2,0.2-0.3,0.3C16.6,21.6,16.6,21.3,16.6,20.7z
			 M13.6,19.9c0.5,0.2,0.7,0.5,0.7,0.9c0,0.4-0.7,0.3-1.2,0.1c-0.5-0.2-0.7-0.6-0.5-0.9C12.6,19.6,13.1,19.6,13.6,19.9z M13.5,20
			c0.2,0,0.4,0.2,0.4,0.4c0,0.2-0.2,0.4-0.4,0.4c-0.2,0-0.4-0.2-0.4-0.4C13.1,20.2,13.2,20,13.5,20z M29.9,24.5
			c-0.6-0.2-0.7,0-1,0.3c-0.3,0-0.5-0.4-0.2-0.5C29,24.1,29.5,24.1,29.9,24.5L29.9,24.5z M30.4,25c-0.6-0.2-0.7,0-1,0.3
			c-0.3,0-0.5-0.4-0.2-0.5C29.5,24.6,30,24.6,30.4,25L30.4,25z"/>
	</g>
</g>
<g>
	<path class="st1" d="M263.1,61.5c-47.3,3.2-89.3,19.4-126.1,48.8c-11,8.8-27,25.2-36.3,37.4c-11,14.3-22.9,35.2-29.4,51.8
		c-14.9,37.7-18.8,75.3-12.3,115.9c9.4,58.1,39.8,107.5,88.4,143.3c5,3.7,5.3,3.4,1.3-0.9c-9-9.5-19.5-23.7-27.5-37.3
		c-15.3-25.9-25.1-54.8-29.2-86.2c-1.4-10.9-1.4-41.5,0-52.5c3.5-26.9,10.9-51,22.6-74.3c2.6-5,5.6-10.7,6.8-12.5
		c1.2-1.8,2.1-3.4,2.1-3.5c0-0.5,7.9-12.1,11.9-17.4c6-8,8.8-11.3,16-19c35.1-37.4,82.3-61.6,133.3-68.3c28.9-3.8,57.5-2.2,84.7,4.9
		c11.3,2.9,27.3,8.5,33.4,11.7c3.8,1.9,2.7,0.7-2.1-2.6c-38.2-26.1-77-38.7-121.6-39.4C272,61.4,264.7,61.4,263.1,61.5z"/>
	<path class="st1" d="M435.9,125.5c0,0.2,2.3,2.8,5.1,5.9c31,34,50.6,77.3,56.3,124.4c1.6,13.7,1.6,35.8,0,49.4
		c-3.3,27.6-10.3,51.1-22.5,75.2c-24.4,48.3-63.5,84.9-113.2,105.8c-44,18.5-94.3,22.4-140.3,10.9c-11.2-2.8-24.9-7.5-33.5-11.5
		c-2.6-1.2-4.8-2-4.9-1.9c-0.3,0.3,8.7,6.5,16.5,11.4c8,5,28.2,15,37.5,18.4c15.4,5.7,32.4,9.8,49.2,12.1c11,1.5,32.2,2,43.5,1.1
		c49.8-3.8,95.4-23.5,132.4-57c31.5-28.5,54.7-67.6,65-109.5c4.5-18.2,6-31.1,5.9-51.5c0-21.3-1.6-34.4-6.8-55.4
		c-12.1-49.1-41.4-92.2-83.7-123.3C438.8,127.3,435.9,125.3,435.9,125.5z"/>
</g>
</svg>
