<?xml version="1.0" encoding="utf-8"?>
<!-- Generator: Adobe Illustrator 22.1.0, SVG Export Plug-In . SVG Version: 6.00 Build 0)  -->
<svg version="1.1" id="svg2608" xmlns:svg="http://www.w3.org/2000/svg"
	 xmlns="http://www.w3.org/2000/svg" xmlns:xlink="http://www.w3.org/1999/xlink" x="0px" y="0px" viewBox="0 0 600 588.4"
	 style="enable-background:new 0 0 600 588.4;" xml:space="preserve">
<style type="text/css">
	.st0{fill-rule:evenodd;clip-rule:evenodd;fill:#F36F21;}
	.st1{fill-rule:evenodd;clip-rule:evenodd;fill:#231F20;}
</style>

<g>
	<path class="st0" d="M263.1,61.5c-47.3,3.2-89.3,19.4-126.1,48.8c-11,8.8-27,25.2-36.3,37.4c-11,14.3-22.9,35.2-29.4,51.8
		c-14.9,37.7-18.8,75.3-12.3,115.9c9.4,58.1,39.8,107.5,88.4,143.3c5,3.7,5.3,3.4,1.3-0.9c-9-9.5-19.5-23.7-27.5-37.3
		c-15.3-25.9-25.1-54.8-29.2-86.2c-1.4-10.9-1.4-41.5,0-52.5c3.5-26.9,10.9-51,22.6-74.3c2.6-5,5.6-10.7,6.8-12.5
		c1.2-1.8,2.1-3.4,2.1-3.5c0-0.5,7.9-12.1,11.9-17.4c6-8,8.8-11.3,16-19c35.1-37.4,82.3-61.6,133.3-68.3c28.9-3.8,57.5-2.2,84.7,4.9
		c11.3,2.9,27.3,8.5,33.4,11.7c3.8,1.9,2.7,0.7-2.1-2.6c-38.2-26.1-77-38.7-121.6-39.4C272,61.4,264.7,61.4,263.1,61.5z"/>
	<path class="st1" d="M435.9,125.5c0,0.2,2.3,2.8,5.1,5.9c31,34,50.6,77.3,56.3,124.4c1.6,13.7,1.6,35.8,0,49.4
		c-3.3,27.6-10.3,51.1-22.5,75.2c-24.4,48.3-63.5,84.9-113.2,105.8c-44,18.5-94.3,22.4-140.3,10.9c-11.2-2.8-24.9-7.5-33.5-11.5
		c-2.6-1.2-4.8-2-4.9-1.9c-0.3,0.3,8.7,6.5,16.5,11.4c8,5,28.2,15,37.5,18.4c15.4,5.7,32.4,9.8,49.2,12.1c11,1.5,32.2,2,43.5,1.1
		c49.8-3.8,95.4-23.5,132.4-57c31.5-28.5,54.7-67.6,65-109.5c4.5-18.2,6-31.1,5.9-51.5c0-21.3-1.6-34.4-6.8-55.4
		c-12.1-49.1-41.4-92.2-83.7-123.3C438.8,127.3,435.9,125.3,435.9,125.5z"/>
</g>
</svg>
