<?xml version="1.0" encoding="UTF-8"?>
<svg width="130px" height="130px" viewBox="0 0 130 130" version="1.1" xmlns="http://www.w3.org/2000/svg" xmlns:xlink="http://www.w3.org/1999/xlink">
    <!-- Generator: Sketch 53.2 (72643) - https://sketchapp.com -->
    <title>PPRu_logo2012</title>
    <desc>Created with Sketch.</desc>
    <g id="Page-1" stroke="none" stroke-width="1" fill="none" fill-rule="evenodd">
        <g id="protivrkn-9" transform="translate(-538.000000, -5518.000000)" fill-rule="nonzero">
            <g id="Group-11" transform="translate(1.000000, 4026.000000)">
                <g id="Поддержать-узкое">
                    <g id="Организатор" transform="translate(208.000000, 1104.000000)">
                        <g id="Много-организаторов">
                            <g id="Пиратская-партия" transform="translate(329.000000, 354.000000)">
                                <g id="PPRu_logo2012" transform="translate(0.000000, 34.000000)">
                                    <path d="M63.4100719,129.532374 C27.7769784,128.690647 -0.467625899,99.1366906 0.374100719,63.5035971 C1.21582734,27.8705036 30.7697842,-0.374100719 66.4028777,0.467625899 C102.035971,1.30935252 130.280576,30.8633094 129.438849,66.4964029 C128.690647,102.129496 99.1366906,130.374101 63.4100719,129.532374 Z" id="Path" fill="#FFFFFF"></path>
                                    <path d="M46.294964,31.2374101 L45.1726619,78.6546763 C51.2517986,74.7266187 61.5395683,70.0503597 63.7841727,60.7913669 C68.1798561,41.9928058 56.3956835,33.9496403 46.294964,31.2374101 Z" id="Path" fill="#FFFFFF"></path>
                                    <path d="M66.3093525,6.73381295 C34.1366906,5.98561151 7.48201439,31.4244604 6.73381295,63.5971223 C5.89208633,95.8633094 31.4244604,122.517986 63.5971223,123.266187 C95.7697842,124.014388 122.42446,98.5755396 123.172662,66.3093525 C123.920863,34.2302158 98.4820144,7.48201439 66.3093525,6.73381295 Z M106.899281,58.3597122 C106.431655,83.2374101 62.4748201,78.4676259 49.5683453,86.2302158 C35.4460432,94.647482 41.2446043,113.352518 41.2446043,113.352518 C41.2446043,113.352518 33.294964,95.8633094 39.3741007,84.6402878 L40.5899281,30.3021583 C38.1582734,30.1151079 36.1942446,30.2086331 34.8848921,30.5827338 C34.5107914,29.8345324 36.7553957,28.5251799 40.6834532,27.4028777 L40.9640288,17.1151079 L46.5755396,17.2086331 L46.3884892,25.9064748 C66.9640288,21.6043165 107.741007,21.5107914 106.899281,58.3597122 Z" id="Shape" fill="#FFFFFF"></path>
                                    <path d="M66.506788,0.0184628739 C30.6256947,-0.829122393 0.866047747,27.6120721 0.0184628655,63.4931817 C-0.829122016,99.3742914 27.6120596,129.133952 63.4931529,129.981537 C99.3742462,130.829122 129.133893,102.387928 129.981478,66.5068183 C130.829063,30.6257086 102.482057,0.866048141 66.506788,0.0184628739 Z M63.6815051,123.671736 C31.2849274,122.918327 5.66902874,96.0781265 6.42243753,63.5873579 C7.17584631,31.1907655 34.0160342,5.57485518 66.4126119,6.3282643 C98.8091896,7.08167343 124.519264,33.9218735 123.765856,66.318466 C122.918271,98.8092345 96.0780828,124.425145 63.6815051,123.671736 Z" id="Shape" fill="#000000"></path>
                                    <path d="M46.3884892,25.8129496 L46.5755396,17.1151079 L40.9640288,17.0215827 L40.6834532,27.3093525 C36.8489209,28.5251799 34.6043165,29.7410072 34.8848921,30.4892086 C36.1942446,30.1151079 38.1582734,30.0215827 40.5899281,30.2086331 L39.3741007,84.5467626 C33.294964,95.7697842 41.2446043,113.258993 41.2446043,113.258993 C41.2446043,113.258993 35.4460432,94.5539568 49.5683453,86.1366906 C62.5683453,78.3741007 106.52518,83.1438849 106.899281,58.3597122 C107.741007,21.5107914 66.9640288,21.6043165 46.3884892,25.8129496 Z M63.7841727,60.7913669 C61.6330935,70.1438849 51.2517986,74.7266187 45.1726619,78.6546763 L46.294964,31.2374101 C56.3956835,33.9496403 68.1798561,41.9928058 63.7841727,60.7913669 Z" id="Shape" fill="#000000"></path>
                                </g>
                            </g>
                        </g>
                    </g>
                </g>
            </g>
        </g>
    </g>
</svg>