<?xml version="1.0" encoding="UTF-8" standalone="no"?>
<!DOCTYPE svg PUBLIC "-//W3C//DTD SVG 1.1//EN"
"http://www.w3.org/Graphics/SVG/1.1/DTD/svg11.dtd">

<!--<svg x="0" y="0" width="100" height="100" viewBox="305 320 320 320" version="1.1" xmlns="http://www.w3.org/2000/svg" xmlns:xlink="http://www.w3.org/1999/xlink" style="display: block;margin-left: auto;margin-right: auto;">-->
<svg width="640" height="640" xviewBox="0 0 640 640" viewBox="330 345 270 270" version="1.1" xmlns="http://www.w3.org/2000/svg" xmlns:xlink="http://www.w3.org/1999/xlink" style="display: block;margin-left: auto;margin-right: auto;">
	<defs>

		<style type="text/css"><![CDATA[

			/* ORIGINAL COLORS: */
			.upper-semicircle{ fill: #CFAE66; }
			.lower-semicircle{ fill: #CFAE66; }
			.eagle{ fill: #CFAE66; stroke: none; }

			.background-square { stroke: black; fill: black; }
			.background-circle { xstroke: black; fill: none; }
			
			text { font: 10px Verdana, Helvetica, Arial, sans-serif; }
			
			.area-green { fill: green; }
			
			.text-blue   { fill: blue;    }
			.text-red    { fill: red;     }
			.text-green  { fill: green;   }
			.text-black  { fill: black;   }
			.text-orange { fill: #f36f21; }
			.text-dark   { fill: #231f20; }
			.text-cyan   { fill: cyan;    }
			
			.line-blue   { stroke: blue;    fill:none; }
			.line-red    { stroke: red;     fill:none; }
			.line-green  { stroke: green;   fill:none; }
			.line-black  { stroke: black;   fill:none; }
			.line-orange { stroke: #f36f21; fill:none; }
			.line-dark   { stroke: #231f20; fill:none; }
			.line-cyan   { stroke: cyan;    fill:none; }

		]]></style>

	</defs>
	
	<rect   class="background-square" id="background-square"  x="330"  y="345" width="270" height="270"/>
	<circle class="background-circle" id="background-circle" cx="465" cy="480" r="135"/>
	
	<g transform="translate(465,470)">
	<g transform="scale(0.95)">
	<g transform="translate(-465,-470)">
	
	<g transform="translate(465,470)">
	<g transform="scale(1.442)">
	<g transform="translate(-465,-470)">
	<g id="original-logo" transform="translate(-0.5,-7.75)">
	
		<!--<rect x="330" y="345" width="270" height="270"/>-->
		<g class="semicircles" id="semicircles">
			<path
				id    = "upper-semicircle"
				class = "upper-semicircle"
				d     = "M402.1,440.3c16.2,-23,42.7,-36.7,70.9,-36.7c12.4,0,24.6,2.7,35.8,7.8c-.5,-.5,-1.1,-.9,-1.7,-1.3C492.6,399.8,475.6,394.4,457.9,394.4c-27.7,0,-53.7,13.5,-69.7,36.1c-13.2,18.6,-18.3,41.2,-14.4,63.7c3.8,22.4,16.2,42.1,34.8,55.2c.6,.4,1.1,.8,1.7,1.2C381.6,520.8,377.7,474.7,402.1,440.3Z"
			/>
			
			<path
				id    = "lower-semicircle"
				class = "lower-semicircle"
				d     = "M528.8,529.9c-16.3,23,-42.8,36.7,-71,36.7c-12.4,0,-24.6,-2.7,-35.8,-7.8c.5,.5,1.1,.9,1.7,1.3c14.5,10.2,31.5,15.7,49.2,15.7c27.7,0,53.7,-13.5,69.7,-36.1c13.2,-18.6,18.3,-41.2,14.5,-63.7c-3.9,-22.4,-16.3,-42.1,-34.9,-55.2c-.5,-.4,-1.1,-.8,-1.7,-1.2c28.7,29.7,32.6,75.9,8.3,110.3Z"
			/>
		</g>
		<xpath
			id    = "eagle"
			class = "eagle"
			d     = "M452.6,499.6c0,0,-20.9,.5,-24.9,.3c-5.3,-.2,-12,-1.6,-13.2,-.2c-1.7,2,-2.5,10.2,-1.4,13.2c.3,.9,4.6,-.4,4.8,.3c0,0,-2.7,9.2,-1.3,11.6c1.4,2.2,8.7,7.2,10.5,9.4c.9,1.1,11,4.4,12.5,4.8c3,.9,7.6,-6.5,10,-5.3c0,0,-1.1,3.8,.3,3.9c1.3,.7,4.4,.8,5.2,0c1.7,-2,6.3,-22.9,6.3,-22.9c0,0,6.2,5.9,8.4,9.2c6.1,9.2,12.7,7.1,15,7.4l-2.7,5.4c3.5,1.7,6.7,5.7,11.9,8.4c3.7,1.9,16.2,5.7,22.1,8.8c4.7,2.5,9.4,6.7,11.4,10.3c1.8,3.4,3.3,2.8,3.3,2.8c0,0,-.5,-1.9,-1.2,-4c-1.2,-3.6,1.2,-3.4,1.2,-3.4c0,0,4.4,7.9,4.8,9.7c.9,4.1,3.5,7.2,3.5,7.2c0,0,1.2,-7,.5,-11.3c-1,-6.1,.5,-5.6,.5,-5.6c0,0,3.6,4.8,5.5,9.5c2.5,6,5.4,5.3,5.4,5.3c0,0,-2.1,-7.8,-3.1,-10.4c-1.7,-4.1,.1,-4.9,.1,-4.9c0,0,6.6,7.5,9.2,9.6c2.2,1.7,4.4,.9,4.4,.9c0,0,-4.5,-6.9,-5.3,-8.2c-1.9,-2.8,-1.5,-3.7,-1.5,-3.7c0,0,4.8,2.2,7.9,5.3c3.1,3,4.2,.8,4.2,.8c0,0,-7.9,-9.2,-10.5,-12.6c-2.7,-3.5,-19.7,-16.8,-23.9,-21.5c-2.2,-2.4,-18.2,-16.1,-23.4,-20.2c-5.3,-4,-8.7,-6.3,-8.7,-6.3c0,0,.8,-2.4,1.6,-3.9c.8,-1.5,1.3,-4.9,1.3,-4.9c0,0,4.8,-1.8,6.3,-1.8c1.6,.1,3.5,.8,3.5,.8c0,0,.8,-3.7,-2.3,-5.3c-3.2,-1.6,-7.8,-4,-8.5,-4.5c-1.8,-1.3,-15.8,3.8,-24.5,-4.9C472.3,473.2,455,442.2,443.4,428.6c-4.8,-5.5,-12.8,-15.2,-20.3,-25.2C412.2,389,405.5,375.6,403.7,373.3c0,0,-.5,4.5,1.7,8.4c2.2,3.8,10.1,17.1,10.1,17.1c0,0,-1.8,.3,-3.3,-1.2c-1.5,-1.5,-17.4,-21.1,-17.4,-21.1c0,0,-.7,3.8,.8,5.8c1.7,2.3,13.1,17.6,13.1,17.6c0,0,-3,-.5,-4.5,-2c-1.5,-1.5,-18.5,-16,-18.5,-16c0,0,-.8,2.8,2.9,6.7c1.2,1.3,13.8,14.7,13.8,14.7c0,0,-4.4,-1,-6.2,-2.8c-1.9,-1.9,-13.5,-5.8,-13.5,-5.8c0,0,.2,1.3,1.7,2.8c2.1,2.1,5.7,4.8,8.1,8.2l-4.3,-.9c.1,1,3.7,4.6,6.6,9.2c3.4,5.4,6.1,12.2,6.9,16.1c.9,4.3,6.6,18.6,7.3,21.3c2.7,9.7,17.6,17.6,17.6,17.6c.5,2.2,-1.1,4.2,-1.1,4.2c9.6,7.8,17.4,19.9,19.5,22.3c2.2,2.4,7.6,4.1,7.6,4.1Z"
		/>
	</g>
	</g>
	</g>
	</g>
	
	
	<g transform="scale(0.55)">
	<g
		id="g28"
		transform="translate(550,390)"
	>
		<path
			d="m 257.8771,610.3447 0,10e-4 2.2541,-2.5946 1.1338,8.6919 2.0121,-2.7768 1.8966,8.5799 1.8082,-3.0266 c 0.6651,2.4605 2.6737,7.3865 0.6917,8.2123 -6.2116,2.0168 -14.436,5.2393 -16.0671,7.9086 -3.3145,0.667 -7.4194,2.5801 -8.3848,5.283 2.2042,-1.0395 4.0974,-1.5917 6.5605,-1.7983 l 0.246,0.6205 c -2.9888,0.7733 -5.7064,2.8309 -6.6345,5.0556 1.84,-0.6968 5.0284,-2.0571 7.4078,-2.2074 l 0.4493,0.6707 c -2.9509,0.9363 -5.2557,3.1652 -6.16,5.0933 2.4852,-0.6956 5.1795,-2.164 7.8883,-2.5889 l 0.612,0.4893 c -2.7842,1.1721 -4.2438,2.5412 -5.4173,4.5096 2.6869,-0.6755 5.104,-1.5673 7.8165,-2.012 0.3546,0.2398 2.5994,0.0431 3.085,-0.0136 l 29.9415,-3.5051 c 1.8079,-0.212 5.2585,0.044 5.7495,-3.0963 0.3056,-1.9525 0.5485,-3.7145 0.5471,-5.3937 l -0.0139,-19.4222 2.3856,3.2182 0.005,-25.6518 1.8779,-5.2447 c 2.3136,9.5247 5.3419,15.9537 9.7846,25.8168 l 0.044,0.1177 0.0141,-0.034 c 0.007,0.0113 0.0151,0.0221 0.0227,0.0328 0.01,-0.0544 0.0204,-0.1057 0.0304,-0.1593 l 1.4468,-3.4608 4.4158,8.5813 1.0511,-3.7936 5.4019,8.072 0.5106,-3.4784 c 1.5808,2.5364 4.6839,8.6573 3.0526,9.2854 -5.4513,2.0991 -12.8288,4.0572 -16.742,8.7945 -3.0407,0.6565 -6.7141,2.5744 -7.467,5.2971 2.19,-1.0426 3.8299,-1.5641 6.6101,-2.0095 0.0615,0.2087 0.1259,0.4184 0.1927,0.6285 -2.9463,0.9289 -5.7163,2.8871 -6.5148,5.1959 1.7926,-0.7957 4.8912,-1.9905 7.6107,-2.2879 0.0836,0.1874 0.1704,0.3751 0.26,0.5624 -2.8925,1.0925 -5.4304,3.077 -6.3709,5.0959 2.4627,-0.6906 5.3804,-1.9579 8.2327,-2.3962 0.1303,0.1939 0.4308,0.3856 0.5697,0.5786 -2.641,1.2042 -4.4166,2.1441 -5.4176,4.1981 2.8577,-0.8337 5.9505,-1.565 8.2364,-1.9913 1.097,0.2282 2.8488,0.2182 3.7142,0.1031 l 30.9586,-4.1195 c 1.8173,-0.2416 4.0904,-0.8215 4.4343,-3.4606 0.2262,-1.7356 0.1797,-3.7321 -0.0128,-5.8796 l -2.2768,-18.9456 2.9977,2.7856 -4.8538,-27.7186 0.0281,-31.2117 4.0141,3.2249 0.5264,-43.5421 0.0456,-15.6747 c 0.0111,-3.892 -0.3101,-7.992 -2.1852,-16.3687 -0.7943,-3.5481 -3.5569,-16.2031 -5.3632,-18.2971 l -0.7472,-22.7324 3.121,1.1775 -0.853,-10.0256 2.8698,1.2742 -1.7396,-9.9556 3.0195,1.0537 -2.1099,-9.8252 3.1556,0.8155 -2.8128,-9.3605 3.5464,0.9793 c -2.4449,-10.1959 -6.0681,-19.7144 -10.3337,-28.0683 l 29.3726,-21.1774 c 0.6361,0.4286 1.4522,0.4686 2.0537,0.0352 l 0.318,-0.2291 c 0.4354,-0.3135 0.6713,-0.8118 0.6906,-1.3436 l 1.5882,-1.2314 c 0.7115,1.3482 1.3317,2.7425 1.8374,4.1692 0.3631,1.0786 0.6412,2.1493 0.8343,3.2687 0.1627,1.053 0.2418,2.0888 0.2525,3.1518 -0.004,1.0414 -0.074,2.056 -0.2171,3.0852 -0.2154,1.3113 -0.5409,2.5319 -1.0123,3.7718 -0.1615,0.3977 -0.3313,0.7878 -0.511,1.1781 -0.4547,0.9297 -0.9582,1.8074 -1.52,2.6773 -1.4474,2.1668 -2.2255,3.0356 -3.8976,5.021 1.2387,0.0887 1.9051,-0.0161 3.0827,-0.2829 0.4546,-0.1026 1.1551,-0.3291 1.6015,-0.5241 0.8785,-0.413 1.6997,-0.8691 2.5186,-1.3867 0.7917,-0.5236 1.5438,-1.0778 2.283,-1.6699 0.7631,-0.6347 1.4704,-1.294 2.1561,-2.0143 0.6463,-0.7104 1.2347,-1.438 1.7943,-2.2204 0.6199,-0.9102 1.1594,-1.8329 1.6517,-2.8213 0.3337,-0.7067 0.6316,-1.4159 0.9051,-2.1507 0.3657,-1.0457 0.6619,-2.0905 0.9074,-3.1728 0.2571,-1.2328 0.4405,-2.4559 0.5582,-3.7128 0.121,-1.6228 0.1173,-3.2034 -0.0196,-4.8285 -0.0556,-0.5327 -0.121,-1.0605 -0.1984,-1.5925 -0.2067,-1.2478 -0.4822,-2.4517 -0.8382,-3.6675 -0.2747,-0.8716 -0.5797,-1.7201 -0.923,-2.5699 -0.2588,-0.6063 -0.5252,-1.2092 -0.7965,-1.8108 l 1.7393,-1.3487 c 0.644,0.4689 1.4956,0.5261 2.1169,0.0785 l 0.3181,-0.2293 c 0.6576,-0.4737 0.8594,-1.3691 0.549,-2.1628 l 0.4201,-0.326 c 1.5599,0.5176 3.339,0.3061 4.7693,-0.7243 1.6611,-1.1967 2.422,-3.1886 2.1382,-5.0884 l 1.6359,-1.484 c 1.3924,0.009 2.7816,0.1041 4.1615,0.3235 1.0953,0.1854 2.147,0.4351 3.227,0.71 l 18.7653,-22.5481 -27.331,10.6599 -0.1134,1.5106 c -0.1854,1.7986 -0.5429,3.5246 -1.0551,5.2554 -0.0601,0.1894 -0.1222,0.3785 -0.1848,0.5667 l -1.9318,1.0845 c -1.7121,-0.8694 -3.8418,-0.7792 -5.5023,0.4173 -1.4245,1.0261 -2.1867,2.639 -2.1963,4.276 l -0.4357,0.2892 c -0.6582,-0.597 -1.6126,-0.7132 -2.293,-0.2231 l -0.3177,0.2293 c -0.6412,0.4621 -0.8496,1.3263 -0.5712,2.105 l -0.7668,0.5088 c -0.4561,-0.9805 -0.9039,-1.9658 -1.3331,-2.9579 -0.4913,-1.1846 -0.889,-2.3771 -1.203,-3.6227 -0.2917,-1.2353 -0.491,-2.4653 -0.6075,-3.7315 -0.1315,-1.6912 -0.1261,-3.3636 0.0584,-5.0542 l 0.1919,-1.1863 c 0.1709,-0.8011 0.3756,-1.5735 0.6216,-2.3573 0.2736,-0.786 0.5752,-1.5426 0.9165,-2.3045 0.3659,-0.7575 0.7543,-1.4857 1.1812,-2.2133 0.5587,-0.8961 1.1483,-1.7391 1.8,-2.5733 0.3982,-0.4831 0.8036,-0.9499 1.2277,-1.4128 0.7157,-0.7401 1.4496,-1.4233 2.2447,-2.0812 0.5202,-0.4062 1.048,-0.8016 1.6016,-1.1653 1.4615,-0.9491 3.0424,-1.6983 4.5933,-2.4894 l -3.3461,-1.6546 -1.275,-0.5851 -2.5376,-1.0258 -2.5225,-0.8306 -2.5092,-0.6361 -1.2504,-0.2438 -1.2475,-0.1955 -1.245,-0.1455 -1.243,-0.0972 -1.2404,-0.0468 -1.2385,0.001 -1.2359,0.051 -1.2348,0.0995 -1.2328,0.1499 -1.2305,0.1976 -1.2291,0.2472 -1.2277,0.2951 -2.4519,0.7353 -2.4478,0.9269 -2.4474,1.1171 -2.4486,1.3051 -2.4536,1.4924 -2.4608,1.6767 -2.1705,1.6305 -2.0486,1.6951 -1.9213,1.7655 -1.7864,1.8411 -1.6449,1.9221 -1.4956,2.0078 -1.3385,2.0982 -0.6083,1.084 -0.5655,1.1075 -0.523,1.133 -0.4785,1.1571 -0.4334,1.1823 -0.3878,1.2076 -0.3408,1.2342 -0.2933,1.2597 -0.2444,1.2864 -0.1961,1.3121 -0.1452,1.34 -0.0952,1.3671 -0.0442,1.3952 0.009,1.423 0.0607,1.4519 0.114,1.48 0.1681,1.5106 0.5468,3.7845 c 1.1418,-1.11 2.2586,-2.2552 3.482,-3.2751 0.9726,-0.7901 1.9806,-1.4874 3.0674,-2.1079 1.3623,-0.7543 2.7641,-1.3538 4.2469,-1.8238 1.2744,-0.3815 2.5463,-0.6469 3.8642,-0.8127 1.9267,-0.2194 3.8111,-0.2231 5.739,-0.008 l 1.0672,0.1582 c 1.0695,0.1967 2.0974,0.4518 3.1349,0.777 0.6828,0.2316 1.3473,0.4836 2.0109,0.7653 0.8234,0.3719 1.6083,0.775 2.3901,1.2263 1.0849,0.6624 2.0767,1.3771 3.0456,2.1988 0.4819,0.4306 0.9459,0.8697 1.3932,1.3337 0.341,0.3597 0.671,0.7263 0.9927,1.0982 l -1.8394,1.2206 c -0.5167,-0.1579 -1.0735,-0.0956 -1.5148,0.2222 l -0.3181,0.2293 c -0.608,0.438 -0.826,1.2379 -0.6097,1.984 l -28.6906,20.6858 c -1.7019,-2.9004 -3.475,-5.6211 -5.2926,-8.1357 l 2.9679,0.1009 -4.6704,-6.6722 2.8832,-0.1287 -5.1614,-5.1451 2.8639,-0.3623 -5.4201,-5.0961 2.8261,-0.5936 c -5.2294,-7.0274 -12.4158,-14.4147 -17.1284,-17.672 0.0105,-0.008 0.021,-0.0153 0.0315,-0.023 0,0 2.1949,-1.0587 2.2652,-2.7666 0.0703,-1.7079 -2.1087,-4.5414 -4.4827,-6.2467 -2.4795,-1.7807 -4.9819,-2.0084 -6.2158,-1.3462 -0.6789,0.3645 -1.3675,1.1951 -1.9523,2.1827 -1.3391,-0.9224 -2.6674,-1.7408 -4.1675,-2.3647 -0.0898,-0.0553 -0.1791,-0.1108 -0.2687,-0.1655 -0.3098,-0.1151 -0.6157,-0.2044 -0.9178,-0.2733 -0.965,-0.3126 -2.0104,-0.5459 -3.1765,-0.6789 -1.3119,-0.1494 -2.7037,-0.2307 -4.1522,-0.2506 -6.2762,-0.0861 -13.6225,0.9783 -20.2258,2.6178 -2.3477,0.5831 -6.5673,4.3728 -6.6311,4.3733 l -16.6595,1.2425 c -3.7154,-0.1392 -2.3417,3.7672 -1.948,6.5074 0.271,1.8859 0.6058,4.0811 0.6058,4.0811 6.7646,2.1404 10.4267,3.4903 12.5164,5.5196 0.2908,0.733 0.2168,2.217 0.0343,2.6445 -1.6753,-0.8099 -6.2725,-2.8497 -10.3822,-2.7715 -0.4433,0.0522 0.1406,2.1682 0.6942,4.2035 0.4312,1.3465 2.4361,2.7941 4.9952,4.8685 6.3859,5.1755 9.1857,14.4235 10.3147,19.08 l -0.002,0.0267 0.007,-0.007 c 0,8e-4 3e-4,0.001 6e-4,0.002 6e-4,-10e-4 9e-4,-0.002 10e-4,-0.003 l 1.8649,-1.8138 0.3958,6.6668 1.6279,-2.0438 1.2345,6.563 1.3382,-2.1435 2.7043,6.0777 0.001,8.481 c -2.2717,0.0717 -4.5374,0.0938 -6.6268,0.0496 -5.5863,-0.1182 -8.5343,-0.1584 -12.4288,-4.0646 L 233.3072,375.35 c -1.5324,-1.5373 -4.0402,-4.7418 -8.1887,-6.8043 l -14.7711,-7.3443 c -3.3247,-1.6534 -7.0727,-3.064 -10.8754,-2.4718 -3.7587,-1.1387 -7.4058,-1.9865 -9.2979,-0.1395 2.2992,0.4867 4.4254,1.1211 6.5387,1.8859 -0.2693,0.2656 -0.5205,0.5431 -0.7526,0.8303 -3.6513,-0.1602 -7.7602,-0.6083 -9.055,1.5236 2.664,-0.1148 5.1026,0.3444 7.7091,0.7991 -0.144,0.383 -0.2554,0.7756 -0.332,1.1738 -3.2306,0.1338 -6.478,0.3345 -7.429,2.283 2.4701,-0.3347 4.7908,-0.1516 7.2374,0.0494 -0.0167,0.4442 -0.0255,0.8722 -0.0246,1.2835 -3.098,0.4201 -6.1317,0.949 -6.876,2.9095 2.3618,-0.5431 4.6275,-0.5862 7.0072,-0.6098 0.0612,0.4731 0.1451,0.9077 0.2548,1.3 -2.4775,0.6401 -4.6363,1.4786 -5.1069,3.1697 2.0948,-0.6888 4.1483,-0.9572 6.2844,-1.1818 0.0295,0.0227 0.059,0.0448 0.0896,0.0664 8.3656,5.866 14.6648,17.9158 22.2188,21.0702 l 2.1742,3.1635 -4.7163,0.6241 7.4954,7.2967 -4.3039,0.7577 7.7996,6.9704 -4.2676,0.9405 8.0898,6.632 -4.2239,1.1214 8.6956,6.529 -4.3254,1.3564 16.3953,11.2093 -23.3955,5.7611 c -9.0652,2.2323 -12.3931,5.1877 -15.2368,9.0885 l -13.3072,18.2497 c -3.4506,4.7319 -4.8549,7.6978 -5.2044,11.8925 -0.1117,0.4958 -0.1364,0.9859 -0.0706,1.449 -0.5111,1.3034 -0.9754,2.5949 -1.1914,3.7568 l -20.3698,14.6863 -0.4008,0.4246 -0.2446,0.5996 -0.0528,0.5788 0.065,0.5309 0.1414,0.4944 0.197,0.4691 0.525,0.8771 0.6664,0.7741 0.383,0.3345 0.4252,0.2911 0.4838,0.229 0.5653,0.1324 0.6454,-0.0428 0.5301,-0.2463 20.4639,-14.7543 c 0.1548,0.3027 0.356,0.568 0.6145,0.79 0.0576,-0.4737 0.1327,-0.9363 0.2211,-1.3924 l 2.617,-1.887 c -0.0184,1.7719 0.28,3.2626 1.3521,4.0246 0.0573,-1.9585 0.4159,-3.7732 0.8564,-5.6168 l 1.3648,-0.984 c 0.0876,-0.005 0.1744,-0.011 0.2622,-0.0172 -0.0793,3.0271 -8e-4,5.9553 1.7575,6.9777 -0.1567,-2.5166 0.2035,-4.8421 0.5851,-7.2986 0.4082,-0.0831 0.8263,-0.1928 1.226,-0.3317 0.195,3.1632 0.4861,6.2972 2.4134,7.1929 -0.4584,-2.9559 -0.1672,-5.7101 6e-4,-8.7236 5.862,-4.8742 12.6011,-8.2032 17.6034,-14.0468 l 3.6499,-0.8952 -1.635,3.968 9.9425,-2.7749 -1.4919,4.049 9.817,-3.1901 -1.3201,4.1086 9.5405,-3.551 -0.2333,1.0176 -0.7766,3.0725 13.7959,-2.6691 0.2177,0.0394 c -1.4241,13.8518 -2.2584,26.0745 -2.7445,40.4719 3e-4,-2e-4 6e-4,-2e-4 8e-4,-2e-4 l 2.7015,-1.1339 -1.8406,7.7995 2.5543,-1.2767 -1.125,7.9761 2.3167,-1.4652 c 0.1361,1.1237 0.252,6.6419 0.7756,10.709 l -9.3028,19.7943 c -3.6011,7.6627 -5.133,20.2377 -4.1814,29.8832 1.719,9.4878 2.1076,10.8898 3.9734,18.4048 z"
			style="fill: white;fill-rule:evenodd"
			id="body"
		/>
		<path
			d="m 382.3034,385.7738 c -1.8508,1.5063 -3.9321,2.8239 -6.2266,3.5425 3.4802,-4.2341 5.6273,-8.2265 5.7914,-13.7239 0.1275,-4.2681 -0.8636,-7.5988 -2.7831,-11.3926 -0.1197,-0.2367 -0.2423,-0.4708 -0.3668,-0.7046 l 8.5629,-6.6377 0.2503,0.5425 c 2.3857,5.1684 2.9858,10.6467 1.8785,16.2008 -0.9564,4.7957 -3.1576,8.959 -7.1066,12.173 z m -4.1548,-23.3099 c 0,0 -3e-4,-3e-4 -3e-4,-3e-4 l -3.2291,2.5039 c 0.1155,0.2342 0.1558,0.4448 0.0361,0.7253 -0.1327,0.1886 -0.3391,0.3149 -0.5355,0.4259 -0.3046,0.0913 -0.5151,-0.0142 -0.7517,-0.2026 l -3.1662,-4.358 c -0.1838,-0.3112 -0.281,-0.5503 -0.132,-0.9002 0.1317,-0.1873 0.3357,-0.3137 0.5344,-0.4255 0.303,-0.0907 0.5153,0.0129 0.7533,0.2026 l 0.0314,0.0432 3.529,-2.3418 c -0.6608,-0.8292 -1.3627,-1.6279 -2.1074,-2.3892 -4.2612,-4.3561 -10.2875,-6.7474 -16.3457,-6.7515 -3.8648,-0.002 -7.4054,0.7528 -10.8626,2.4967 -1.5719,0.7928 -3.0146,1.7589 -4.3612,2.9002 -0.5748,0.4871 -1.1213,1.0052 -1.6613,1.5341 -2.6026,-16.2045 4.0459,-26.9245 15.7157,-35.2994 12.9157,-9.2691 25.1072,-10.6254 38.4801,-3.7656 -0.9704,0.4903 -1.9005,1.0055 -2.8031,1.6086 -5.544,3.703 -9.8776,10.52 -10.2503,17.2784 -0.2413,4.3711 0.4443,8.5103 2.2819,12.4915 l 1.6006,3.4685 2.8272,-1.8758 -0.328,-0.4513 c -0.1837,-0.3112 -0.281,-0.5503 -0.1319,-0.9002 0.1316,-0.1873 0.3357,-0.3136 0.5344,-0.4255 0.303,-0.0907 0.5152,0.013 0.7533,0.2026 l 0.5025,0.6915 1.9061,-1.2648 c -0.2045,-1.4699 0.3895,-3.0055 1.6729,-3.93 1.466,-1.0561 3.4027,-1.0063 4.8035,-0.0158 l 2.9124,-1.6355 c 0.1165,-0.3385 0.2285,-0.6786 0.3362,-1.0194 0.6193,-2.0536 1.0299,-4.1448 1.1643,-6.2909 l 22.4341,-8.75 -15.404,18.5092 c -0.986,-0.2611 -1.9839,-0.4567 -2.9894,-0.6094 -0.9092,-0.1265 -1.8162,-0.2075 -2.7241,-0.249 l 13.0421,-11.8331 -8.4246,6.0718 -6.3138,5.7285 c 0,0 -4e-4,-1e-4 -4e-4,-1e-4 l -2.4718,2.2431 c 0.497,1.6427 -0.0698,3.4956 -1.5366,4.5523 -1.2878,0.9278 -2.9389,1.0036 -4.2706,0.3368 l -1.7888,1.387 0.3155,0.4344 c 0.1834,0.3111 0.2808,0.5527 0.1321,0.9012 -0.1327,0.1887 -0.3391,0.3149 -0.5355,0.426 -0.3045,0.0912 -0.515,-0.0143 -0.7516,-0.2027 l -0.4218,-0.5807 -3.0405,2.3574 -5e-4,-6e-4 -8.9588,6.9482 z"
			style="fill:#ffffff;fill-rule:evenodd"
			id="blade-1"
		/>
		<path
			d="m 354.5657,326.0719 c 2.7014,-2.2742 5.5432,-4.2043 8.6678,-5.8572 4.8124,-2.5452 12.8208,-5.3799 23.5871,-1.9559 -0.7912,0.7339 -1.5276,1.4904 -2.2144,2.2768 -9.0009,-2.4801 -17.5635,-0.0802 -25.1723,5.4056 -7.5642,5.4553 -12.4914,12.862 -13.011,22.1137 -0.9984,0.415 -1.9712,0.8824 -2.9109,1.4145 -0.0717,-12.1907 7.6561,-20.5368 11.0537,-23.3975 z m 46.1276,15.0126 c -0.108,0.3413 -0.2199,0.6809 -0.3364,1.0196 l 7.444,-4.1802 8.4161,-6.0631 -15.3476,8.6185 c -0.0567,0.2024 -0.1154,0.4036 -0.1761,0.6052 z m -5.6389,1.8944 c 2.2737,0 4.1281,1.8555 4.1281,4.1286 0,2.2737 -1.8544,4.1287 -4.1281,4.1287 -0.6664,0 -1.2977,-0.1599 -1.8559,-0.4422 l -0.8654,0.671 -0.1304,0.1009 -0.7931,0.6148 -2.3474,-3.2306 0.8558,-0.5678 0.1315,-0.0873 0.917,-0.6083 c -0.0269,-0.1897 -0.0408,-0.3824 -0.0408,-0.5792 0,-2.2731 1.8545,-4.1286 4.1287,-4.1286 z m -2.1569,7.6464 c -0.0139,-0.009 -0.0281,-0.0172 -0.0419,-0.026 -0.009,-0.005 -0.0165,-0.0105 -0.025,-0.0159 -3e-4,0 -3e-4,-3e-4 -6e-4,-3e-4 -0.6953,-0.447 -1.2495,-1.0967 -1.5766,-1.8646 0.1171,0.2775 0.2676,0.5471 0.4513,0.8016 0.3135,0.4354 0.6973,0.7906 1.1253,1.063 z m 1.933,-6.8366 c 1.5791,0 2.8666,1.289 2.8666,2.8667 0,1.5786 -1.2875,2.8673 -2.8666,2.8673 -1.5792,0 -2.8667,-1.2887 -2.8667,-2.8673 0,-1.5777 1.2875,-2.8667 2.8667,-2.8667 z m -1.933,6.8366 c -0.0139,-0.008 -0.0281,-0.0172 -0.0419,-0.026 z m -6.1396,-0.1462 1.918,2.6623 -13.5375,10.0936 -2.4105,-3.346 c -0.0165,-0.023 -0.0329,-0.0451 -0.0499,-0.0669 l -0.989,0.6562 3.1342,4.3132 c 0.0357,0.0609 0.0686,0.1185 0.0967,0.1754 l 0.5635,-0.4368 c 3e-4,3e-4 3e-4,9e-4 6e-4,10e-4 l 13.7276,-10.6461 0.9369,-0.7263 -2.4166,-3.3261 -0.974,0.6463 z m -8.0379,13.0161 2.3417,-1.8159 c 0.9516,1.7292 1.766,3.5306 2.42,5.3739 1.2761,3.7866 1.6548,7.7576 1.0043,11.7145 1.9003,-3.4217 2.6237,-7.3871 2.5327,-11.2722 -0.1236,-2.8103 -0.6998,-5.3983 -1.7521,-8.0051 -0.1142,-0.2676 -0.2313,-0.5346 -0.3486,-0.8011 l -6.1983,4.805 c -2e-4,3e-4 0,6e-4 3e-4,9e-4 z m 5.6906,-12.8574 -2.4795,1.6452 c -0.6313,-1.347 -1.2461,-2.6997 -1.8147,-4.0728 -2.1249,-5.3694 -2.6941,-11.3649 -1.3028,-16.9917 0.4056,-1.4434 0.8983,-2.7904 1.5114,-4.159 0.9658,-1.9998 2.0883,-3.8089 3.4143,-5.4825 -8.4605,-2.1166 -16.4381,0.3161 -23.5352,5.4329 -6.8726,4.9567 -11.7899,11.6909 -12.5144,20.5608 4.7696,-1.6512 9.8252,-1.9006 14.7748,-0.858 l 1.2344,0.3064 c 2.081,0.5947 3.9873,1.3723 5.8879,2.4095 2.2986,1.3254 4.2724,2.8686 6.1004,4.7967 0.4187,0.4519 0.826,0.9151 1.2232,1.3893 l -2.4384,1.618 c 0.2546,0.2965 0.5037,0.5978 0.7469,0.9034 l 2.4299,-1.6123 4.7855,-3.1754 c 0,0 0,0 -3e-4,-3e-4 l 2.4707,-1.6393 -0.4941,-1.0709 z"
			style="fill:#eceded;fill-rule:evenodd"
			id="blade-2"
		/>
		<path
			d="m 171.3288,511.0915 20.6847,-14.9136 c -0.2245,-1.4182 0.0898,-3.2494 0.4833,-5.1166 -0.2075,-0.0844 -0.4161,-0.1726 -0.6248,-0.2653 l -1.8323,1.3212 c -0.4595,0.9882 -0.866,2.0047 -1.1871,3.0941 -0.4068,-0.4879 -0.5967,-1.0942 -0.631,-1.7833 l -19.4959,14.0564 c -1.2027,0.8671 1.4006,4.4745 2.6031,3.6071 z m 22.265,-16.0529 2.2978,-1.6568 c 0.0348,-0.4283 0.0805,-0.8651 0.1306,-1.3048 -0.4677,-0.078 -0.9311,-0.1775 -1.3938,-0.2993 -0.3792,1.0907 -0.7392,2.1642 -1.0346,3.2609 z m 86.8349,-62.6074 91.8955,-66.2553 -2.6147,-3.5991 -102.0699,73.5913 12.7891,-3.7369 z"
			style="fill:black;fill-rule:evenodd"
			id="shaft-1"
		/>
		<!--<xpath
			d="m 370.7413,363.9995 -98.1896,70.7332 -3.3545,0.9802 100.859,-72.6565 0.6851,0.9431 z m -178.5475,128.6243 -3.2712,2.3564 c 0.208,-0.6735 0.4493,-1.3203 0.7137,-1.9502 l 2.7797,-2.0027 c 0.0272,0.0114 0.0536,0.023 0.0808,0.034 -0.1111,0.5267 -0.2152,1.05 -0.303,1.5625 z m -3.4308,2.4715 -18.8379,13.5712 -0.6815,-0.9454 19.0488,-13.7231 c 0.0817,0.4062 0.2331,0.7756 0.4706,1.0973 z"
			style="fill:#f3987b;fill-rule:evenodd"
			id="shaft-2"
		/>-->
		<path
			d="m 254.9299,635.8922 3.024,-0.7305 -0.9848,-0.6293 -2.0392,1.3598 z m 21.5186,-297.1916 c -2.0968,-0.7274 -3.772,-0.9638 -5.4723,-1.0163 0.0678,-2.5375 2.5388,-1.7906 3.608,-1.0845 0.7251,0.4793 1.1557,1.0732 1.8643,2.1008 z"
			style="fill: black;fill-rule:evenodd"
			id="eye"
		/>
	</g>
	</g>
	
	</g>
	</g>
	</g>

</svg>
