<svg viewBox="0 0 33 33" width="100%" height="100%" fill="#ffffff" version="1.1" xmlns="http://www.w3.org/2000/svg" xmlns:xlink="http://www.w3.org/1999/xlink">
	<rect fill="#ffffff" width="100%" height="100%"></rect>
	<rect fill="#000000" width="1" height="1" id="template"></rect>
	<rect x="0" y="0" fill="#000000" width="1" height="1" id="template"></rect>
	<rect x="1" y="0" fill="#000000" width="1" height="1" id="template"></rect>
	<rect x="2" y="0" fill="#000000" width="1" height="1" id="template"></rect>
	<rect x="3" y="0" fill="#000000" width="1" height="1" id="template"></rect>
	<rect x="4" y="0" fill="#000000" width="1" height="1" id="template"></rect>
	<rect x="5" y="0" fill="#000000" width="1" height="1" id="template"></rect>
	<rect x="6" y="0" fill="#000000" width="1" height="1" id="template"></rect>
	<rect x="8" y="0" fill="#000000" width="1" height="1" id="template"></rect>
	<rect x="10" y="0" fill="#000000" width="1" height="1" id="template"></rect>
	<rect x="12" y="0" fill="#000000" width="1" height="1" id="template"></rect>
	<rect x="13" y="0" fill="#000000" width="1" height="1" id="template"></rect>
	<rect x="14" y="0" fill="#000000" width="1" height="1" id="template"></rect>
	<rect x="15" y="0" fill="#000000" width="1" height="1" id="template"></rect>
	<rect x="17" y="0" fill="#000000" width="1" height="1" id="template"></rect>
	<rect x="18" y="0" fill="#000000" width="1" height="1" id="template"></rect>
	<rect x="19" y="0" fill="#000000" width="1" height="1" id="template"></rect>
	<rect x="20" y="0" fill="#000000" width="1" height="1" id="template"></rect>
	<rect x="23" y="0" fill="#000000" width="1" height="1" id="template"></rect>
	<rect x="24" y="0" fill="#000000" width="1" height="1" id="template"></rect>
	<rect x="26" y="0" fill="#000000" width="1" height="1" id="template"></rect>
	<rect x="27" y="0" fill="#000000" width="1" height="1" id="template"></rect>
	<rect x="28" y="0" fill="#000000" width="1" height="1" id="template"></rect>
	<rect x="29" y="0" fill="#000000" width="1" height="1" id="template"></rect>
	<rect x="30" y="0" fill="#000000" width="1" height="1" id="template"></rect>
	<rect x="31" y="0" fill="#000000" width="1" height="1" id="template"></rect>
	<rect x="32" y="0" fill="#000000" width="1" height="1" id="template"></rect>
	<rect x="0" y="1" fill="#000000" width="1" height="1" id="template"></rect>
	<rect x="6" y="1" fill="#000000" width="1" height="1" id="template"></rect>
	<rect x="9" y="1" fill="#000000" width="1" height="1" id="template"></rect>
	<rect x="10" y="1" fill="#000000" width="1" height="1" id="template"></rect>
	<rect x="11" y="1" fill="#000000" width="1" height="1" id="template"></rect>
	<rect x="12" y="1" fill="#000000" width="1" height="1" id="template"></rect>
	<rect x="13" y="1" fill="#000000" width="1" height="1" id="template"></rect>
	<rect x="16" y="1" fill="#000000" width="1" height="1" id="template"></rect>
	<rect x="18" y="1" fill="#000000" width="1" height="1" id="template"></rect>
	<rect x="22" y="1" fill="#000000" width="1" height="1" id="template"></rect>
	<rect x="23" y="1" fill="#000000" width="1" height="1" id="template"></rect>
	<rect x="24" y="1" fill="#000000" width="1" height="1" id="template"></rect>
	<rect x="26" y="1" fill="#000000" width="1" height="1" id="template"></rect>
	<rect x="32" y="1" fill="#000000" width="1" height="1" id="template"></rect>
	<rect x="0" y="2" fill="#000000" width="1" height="1" id="template"></rect>
	<rect x="2" y="2" fill="#000000" width="1" height="1" id="template"></rect>
	<rect x="3" y="2" fill="#000000" width="1" height="1" id="template"></rect>
	<rect x="4" y="2" fill="#000000" width="1" height="1" id="template"></rect>
	<rect x="6" y="2" fill="#000000" width="1" height="1" id="template"></rect>
	<rect x="8" y="2" fill="#000000" width="1" height="1" id="template"></rect>
	<rect x="9" y="2" fill="#000000" width="1" height="1" id="template"></rect>
	<rect x="10" y="2" fill="#000000" width="1" height="1" id="template"></rect>
	<rect x="16" y="2" fill="#000000" width="1" height="1" id="template"></rect>
	<rect x="19" y="2" fill="#000000" width="1" height="1" id="template"></rect>
	<rect x="20" y="2" fill="#000000" width="1" height="1" id="template"></rect>
	<rect x="23" y="2" fill="#000000" width="1" height="1" id="template"></rect>
	<rect x="26" y="2" fill="#000000" width="1" height="1" id="template"></rect>
	<rect x="28" y="2" fill="#000000" width="1" height="1" id="template"></rect>
	<rect x="29" y="2" fill="#000000" width="1" height="1" id="template"></rect>
	<rect x="30" y="2" fill="#000000" width="1" height="1" id="template"></rect>
	<rect x="32" y="2" fill="#000000" width="1" height="1" id="template"></rect>
	<rect x="0" y="3" fill="#000000" width="1" height="1" id="template"></rect>
	<rect x="2" y="3" fill="#000000" width="1" height="1" id="template"></rect>
	<rect x="3" y="3" fill="#000000" width="1" height="1" id="template"></rect>
	<rect x="4" y="3" fill="#000000" width="1" height="1" id="template"></rect>
	<rect x="6" y="3" fill="#000000" width="1" height="1" id="template"></rect>
	<rect x="8" y="3" fill="#000000" width="1" height="1" id="template"></rect>
	<rect x="9" y="3" fill="#000000" width="1" height="1" id="template"></rect>
	<rect x="10" y="3" fill="#000000" width="1" height="1" id="template"></rect>
	<rect x="12" y="3" fill="#000000" width="1" height="1" id="template"></rect>
	<rect x="14" y="3" fill="#000000" width="1" height="1" id="template"></rect>
	<rect x="15" y="3" fill="#000000" width="1" height="1" id="template"></rect>
	<rect x="17" y="3" fill="#000000" width="1" height="1" id="template"></rect>
	<rect x="22" y="3" fill="#000000" width="1" height="1" id="template"></rect>
	<rect x="23" y="3" fill="#000000" width="1" height="1" id="template"></rect>
	<rect x="24" y="3" fill="#000000" width="1" height="1" id="template"></rect>
	<rect x="26" y="3" fill="#000000" width="1" height="1" id="template"></rect>
	<rect x="28" y="3" fill="#000000" width="1" height="1" id="template"></rect>
	<rect x="29" y="3" fill="#000000" width="1" height="1" id="template"></rect>
	<rect x="30" y="3" fill="#000000" width="1" height="1" id="template"></rect>
	<rect x="32" y="3" fill="#000000" width="1" height="1" id="template"></rect>
	<rect x="0" y="4" fill="#000000" width="1" height="1" id="template"></rect>
	<rect x="2" y="4" fill="#000000" width="1" height="1" id="template"></rect>
	<rect x="3" y="4" fill="#000000" width="1" height="1" id="template"></rect>
	<rect x="4" y="4" fill="#000000" width="1" height="1" id="template"></rect>
	<rect x="6" y="4" fill="#000000" width="1" height="1" id="template"></rect>
	<rect x="8" y="4" fill="#000000" width="1" height="1" id="template"></rect>
	<rect x="11" y="4" fill="#000000" width="1" height="1" id="template"></rect>
	<rect x="12" y="4" fill="#000000" width="1" height="1" id="template"></rect>
	<rect x="14" y="4" fill="#000000" width="1" height="1" id="template"></rect>
	<rect x="16" y="4" fill="#000000" width="1" height="1" id="template"></rect>
	<rect x="19" y="4" fill="#000000" width="1" height="1" id="template"></rect>
	<rect x="22" y="4" fill="#000000" width="1" height="1" id="template"></rect>
	<rect x="24" y="4" fill="#000000" width="1" height="1" id="template"></rect>
	<rect x="26" y="4" fill="#000000" width="1" height="1" id="template"></rect>
	<rect x="28" y="4" fill="#000000" width="1" height="1" id="template"></rect>
	<rect x="29" y="4" fill="#000000" width="1" height="1" id="template"></rect>
	<rect x="30" y="4" fill="#000000" width="1" height="1" id="template"></rect>
	<rect x="32" y="4" fill="#000000" width="1" height="1" id="template"></rect>
	<rect x="0" y="5" fill="#000000" width="1" height="1" id="template"></rect>
	<rect x="6" y="5" fill="#000000" width="1" height="1" id="template"></rect>
	<rect x="10" y="5" fill="#000000" width="1" height="1" id="template"></rect>
	<rect x="11" y="5" fill="#000000" width="1" height="1" id="template"></rect>
	<rect x="13" y="5" fill="#000000" width="1" height="1" id="template"></rect>
	<rect x="15" y="5" fill="#000000" width="1" height="1" id="template"></rect>
	<rect x="16" y="5" fill="#000000" width="1" height="1" id="template"></rect>
	<rect x="19" y="5" fill="#000000" width="1" height="1" id="template"></rect>
	<rect x="21" y="5" fill="#000000" width="1" height="1" id="template"></rect>
	<rect x="22" y="5" fill="#000000" width="1" height="1" id="template"></rect>
	<rect x="24" y="5" fill="#000000" width="1" height="1" id="template"></rect>
	<rect x="26" y="5" fill="#000000" width="1" height="1" id="template"></rect>
	<rect x="32" y="5" fill="#000000" width="1" height="1" id="template"></rect>
	<rect x="0" y="6" fill="#000000" width="1" height="1" id="template"></rect>
	<rect x="1" y="6" fill="#000000" width="1" height="1" id="template"></rect>
	<rect x="2" y="6" fill="#000000" width="1" height="1" id="template"></rect>
	<rect x="3" y="6" fill="#000000" width="1" height="1" id="template"></rect>
	<rect x="4" y="6" fill="#000000" width="1" height="1" id="template"></rect>
	<rect x="5" y="6" fill="#000000" width="1" height="1" id="template"></rect>
	<rect x="6" y="6" fill="#000000" width="1" height="1" id="template"></rect>
	<rect x="8" y="6" fill="#000000" width="1" height="1" id="template"></rect>
	<rect x="10" y="6" fill="#000000" width="1" height="1" id="template"></rect>
	<rect x="12" y="6" fill="#000000" width="1" height="1" id="template"></rect>
	<rect x="14" y="6" fill="#000000" width="1" height="1" id="template"></rect>
	<rect x="16" y="6" fill="#000000" width="1" height="1" id="template"></rect>
	<rect x="18" y="6" fill="#000000" width="1" height="1" id="template"></rect>
	<rect x="20" y="6" fill="#000000" width="1" height="1" id="template"></rect>
	<rect x="22" y="6" fill="#000000" width="1" height="1" id="template"></rect>
	<rect x="24" y="6" fill="#000000" width="1" height="1" id="template"></rect>
	<rect x="26" y="6" fill="#000000" width="1" height="1" id="template"></rect>
	<rect x="27" y="6" fill="#000000" width="1" height="1" id="template"></rect>
	<rect x="28" y="6" fill="#000000" width="1" height="1" id="template"></rect>
	<rect x="29" y="6" fill="#000000" width="1" height="1" id="template"></rect>
	<rect x="30" y="6" fill="#000000" width="1" height="1" id="template"></rect>
	<rect x="31" y="6" fill="#000000" width="1" height="1" id="template"></rect>
	<rect x="32" y="6" fill="#000000" width="1" height="1" id="template"></rect>
	<rect x="10" y="7" fill="#000000" width="1" height="1" id="template"></rect>
	<rect x="12" y="7" fill="#000000" width="1" height="1" id="template"></rect>
	<rect x="15" y="7" fill="#000000" width="1" height="1" id="template"></rect>
	<rect x="16" y="7" fill="#000000" width="1" height="1" id="template"></rect>
	<rect x="17" y="7" fill="#000000" width="1" height="1" id="template"></rect>
	<rect x="18" y="7" fill="#000000" width="1" height="1" id="template"></rect>
	<rect x="20" y="7" fill="#000000" width="1" height="1" id="template"></rect>
	<rect x="22" y="7" fill="#000000" width="1" height="1" id="template"></rect>
	<rect x="23" y="7" fill="#000000" width="1" height="1" id="template"></rect>
	<rect x="0" y="8" fill="#000000" width="1" height="1" id="template"></rect>
	<rect x="1" y="8" fill="#000000" width="1" height="1" id="template"></rect>
	<rect x="2" y="8" fill="#000000" width="1" height="1" id="template"></rect>
	<rect x="3" y="8" fill="#000000" width="1" height="1" id="template"></rect>
	<rect x="6" y="8" fill="#000000" width="1" height="1" id="template"></rect>
	<rect x="8" y="8" fill="#000000" width="1" height="1" id="template"></rect>
	<rect x="10" y="8" fill="#000000" width="1" height="1" id="template"></rect>
	<rect x="11" y="8" fill="#000000" width="1" height="1" id="template"></rect>
	<rect x="12" y="8" fill="#000000" width="1" height="1" id="template"></rect>
	<rect x="13" y="8" fill="#000000" width="1" height="1" id="template"></rect>
	<rect x="15" y="8" fill="#000000" width="1" height="1" id="template"></rect>
	<rect x="16" y="8" fill="#000000" width="1" height="1" id="template"></rect>
	<rect x="17" y="8" fill="#000000" width="1" height="1" id="template"></rect>
	<rect x="18" y="8" fill="#000000" width="1" height="1" id="template"></rect>
	<rect x="21" y="8" fill="#000000" width="1" height="1" id="template"></rect>
	<rect x="25" y="8" fill="#000000" width="1" height="1" id="template"></rect>
	<rect x="28" y="8" fill="#000000" width="1" height="1" id="template"></rect>
	<rect x="29" y="8" fill="#000000" width="1" height="1" id="template"></rect>
	<rect x="30" y="8" fill="#000000" width="1" height="1" id="template"></rect>
	<rect x="32" y="8" fill="#000000" width="1" height="1" id="template"></rect>
	<rect x="1" y="9" fill="#000000" width="1" height="1" id="template"></rect>
	<rect x="2" y="9" fill="#000000" width="1" height="1" id="template"></rect>
	<rect x="3" y="9" fill="#000000" width="1" height="1" id="template"></rect>
	<rect x="4" y="9" fill="#000000" width="1" height="1" id="template"></rect>
	<rect x="10" y="9" fill="#000000" width="1" height="1" id="template"></rect>
	<rect x="12" y="9" fill="#000000" width="1" height="1" id="template"></rect>
	<rect x="13" y="9" fill="#000000" width="1" height="1" id="template"></rect>
	<rect x="14" y="9" fill="#000000" width="1" height="1" id="template"></rect>
	<rect x="15" y="9" fill="#000000" width="1" height="1" id="template"></rect>
	<rect x="18" y="9" fill="#000000" width="1" height="1" id="template"></rect>
	<rect x="19" y="9" fill="#000000" width="1" height="1" id="template"></rect>
	<rect x="20" y="9" fill="#000000" width="1" height="1" id="template"></rect>
	<rect x="23" y="9" fill="#000000" width="1" height="1" id="template"></rect>
	<rect x="26" y="9" fill="#000000" width="1" height="1" id="template"></rect>
	<rect x="27" y="9" fill="#000000" width="1" height="1" id="template"></rect>
	<rect x="30" y="9" fill="#000000" width="1" height="1" id="template"></rect>
	<rect x="31" y="9" fill="#000000" width="1" height="1" id="template"></rect>
	<rect x="32" y="9" fill="#000000" width="1" height="1" id="template"></rect>
	<rect x="0" y="10" fill="#000000" width="1" height="1" id="template"></rect>
	<rect x="4" y="10" fill="#000000" width="1" height="1" id="template"></rect>
	<rect x="6" y="10" fill="#000000" width="1" height="1" id="template"></rect>
	<rect x="7" y="10" fill="#000000" width="1" height="1" id="template"></rect>
	<rect x="8" y="10" fill="#000000" width="1" height="1" id="template"></rect>
	<rect x="9" y="10" fill="#000000" width="1" height="1" id="template"></rect>
	<rect x="10" y="10" fill="#000000" width="1" height="1" id="template"></rect>
	<rect x="11" y="10" fill="#000000" width="1" height="1" id="template"></rect>
	<rect x="12" y="10" fill="#000000" width="1" height="1" id="template"></rect>
	<rect x="13" y="10" fill="#000000" width="1" height="1" id="template"></rect>
	<rect x="16" y="10" fill="#000000" width="1" height="1" id="template"></rect>
	<rect x="17" y="10" fill="#000000" width="1" height="1" id="template"></rect>
	<rect x="18" y="10" fill="#000000" width="1" height="1" id="template"></rect>
	<rect x="20" y="10" fill="#000000" width="1" height="1" id="template"></rect>
	<rect x="21" y="10" fill="#000000" width="1" height="1" id="template"></rect>
	<rect x="22" y="10" fill="#000000" width="1" height="1" id="template"></rect>
	<rect x="23" y="10" fill="#000000" width="1" height="1" id="template"></rect>
	<rect x="24" y="10" fill="#000000" width="1" height="1" id="template"></rect>
	<rect x="25" y="10" fill="#000000" width="1" height="1" id="template"></rect>
	<rect x="27" y="10" fill="#000000" width="1" height="1" id="template"></rect>
	<rect x="30" y="10" fill="#000000" width="1" height="1" id="template"></rect>
	<rect x="31" y="10" fill="#000000" width="1" height="1" id="template"></rect>
	<rect x="32" y="10" fill="#000000" width="1" height="1" id="template"></rect>
	<rect x="0" y="11" fill="#000000" width="1" height="1" id="template"></rect>
	<rect x="4" y="11" fill="#000000" width="1" height="1" id="template"></rect>
	<rect x="5" y="11" fill="#000000" width="1" height="1" id="template"></rect>
	<rect x="8" y="11" fill="#000000" width="1" height="1" id="template"></rect>
	<rect x="9" y="11" fill="#000000" width="1" height="1" id="template"></rect>
	<rect x="10" y="11" fill="#000000" width="1" height="1" id="template"></rect>
	<rect x="15" y="11" fill="#000000" width="1" height="1" id="template"></rect>
	<rect x="18" y="11" fill="#000000" width="1" height="1" id="template"></rect>
	<rect x="19" y="11" fill="#000000" width="1" height="1" id="template"></rect>
	<rect x="23" y="11" fill="#000000" width="1" height="1" id="template"></rect>
	<rect x="25" y="11" fill="#000000" width="1" height="1" id="template"></rect>
	<rect x="26" y="11" fill="#000000" width="1" height="1" id="template"></rect>
	<rect x="28" y="11" fill="#000000" width="1" height="1" id="template"></rect>
	<rect x="31" y="11" fill="#000000" width="1" height="1" id="template"></rect>
	<rect x="0" y="12" fill="#000000" width="1" height="1" id="template"></rect>
	<rect x="3" y="12" fill="#000000" width="1" height="1" id="template"></rect>
	<rect x="5" y="12" fill="#000000" width="1" height="1" id="template"></rect>
	<rect x="6" y="12" fill="#000000" width="1" height="1" id="template"></rect>
	<rect x="7" y="12" fill="#000000" width="1" height="1" id="template"></rect>
	<rect x="9" y="12" fill="#000000" width="1" height="1" id="template"></rect>
	<rect x="10" y="12" fill="#000000" width="1" height="1" id="template"></rect>
	<rect x="12" y="12" fill="#000000" width="1" height="1" id="template"></rect>
	<rect x="14" y="12" fill="#000000" width="1" height="1" id="template"></rect>
	<rect x="17" y="12" fill="#000000" width="1" height="1" id="template"></rect>
	<rect x="18" y="12" fill="#000000" width="1" height="1" id="template"></rect>
	<rect x="19" y="12" fill="#000000" width="1" height="1" id="template"></rect>
	<rect x="22" y="12" fill="#000000" width="1" height="1" id="template"></rect>
	<rect x="23" y="12" fill="#000000" width="1" height="1" id="template"></rect>
	<rect x="24" y="12" fill="#000000" width="1" height="1" id="template"></rect>
	<rect x="25" y="12" fill="#000000" width="1" height="1" id="template"></rect>
	<rect x="27" y="12" fill="#000000" width="1" height="1" id="template"></rect>
	<rect x="28" y="12" fill="#000000" width="1" height="1" id="template"></rect>
	<rect x="29" y="12" fill="#000000" width="1" height="1" id="template"></rect>
	<rect x="1" y="13" fill="#000000" width="1" height="1" id="template"></rect>
	<rect x="5" y="13" fill="#000000" width="1" height="1" id="template"></rect>
	<rect x="11" y="13" fill="#000000" width="1" height="1" id="template"></rect>
	<rect x="12" y="13" fill="#000000" width="1" height="1" id="template"></rect>
	<rect x="14" y="13" fill="#000000" width="1" height="1" id="template"></rect>
	<rect x="15" y="13" fill="#000000" width="1" height="1" id="template"></rect>
	<rect x="19" y="13" fill="#000000" width="1" height="1" id="template"></rect>
	<rect x="21" y="13" fill="#000000" width="1" height="1" id="template"></rect>
	<rect x="22" y="13" fill="#000000" width="1" height="1" id="template"></rect>
	<rect x="24" y="13" fill="#000000" width="1" height="1" id="template"></rect>
	<rect x="27" y="13" fill="#000000" width="1" height="1" id="template"></rect>
	<rect x="29" y="13" fill="#000000" width="1" height="1" id="template"></rect>
	<rect x="30" y="13" fill="#000000" width="1" height="1" id="template"></rect>
	<rect x="31" y="13" fill="#000000" width="1" height="1" id="template"></rect>
	<rect x="1" y="14" fill="#000000" width="1" height="1" id="template"></rect>
	<rect x="6" y="14" fill="#000000" width="1" height="1" id="template"></rect>
	<rect x="9" y="14" fill="#000000" width="1" height="1" id="template"></rect>
	<rect x="11" y="14" fill="#000000" width="1" height="1" id="template"></rect>
	<rect x="13" y="14" fill="#000000" width="1" height="1" id="template"></rect>
	<rect x="18" y="14" fill="#000000" width="1" height="1" id="template"></rect>
	<rect x="19" y="14" fill="#000000" width="1" height="1" id="template"></rect>
	<rect x="20" y="14" fill="#000000" width="1" height="1" id="template"></rect>
	<rect x="21" y="14" fill="#000000" width="1" height="1" id="template"></rect>
	<rect x="22" y="14" fill="#000000" width="1" height="1" id="template"></rect>
	<rect x="24" y="14" fill="#000000" width="1" height="1" id="template"></rect>
	<rect x="30" y="14" fill="#000000" width="1" height="1" id="template"></rect>
	<rect x="0" y="15" fill="#000000" width="1" height="1" id="template"></rect>
	<rect x="1" y="15" fill="#000000" width="1" height="1" id="template"></rect>
	<rect x="5" y="15" fill="#000000" width="1" height="1" id="template"></rect>
	<rect x="7" y="15" fill="#000000" width="1" height="1" id="template"></rect>
	<rect x="11" y="15" fill="#000000" width="1" height="1" id="template"></rect>
	<rect x="14" y="15" fill="#000000" width="1" height="1" id="template"></rect>
	<rect x="15" y="15" fill="#000000" width="1" height="1" id="template"></rect>
	<rect x="16" y="15" fill="#000000" width="1" height="1" id="template"></rect>
	<rect x="19" y="15" fill="#000000" width="1" height="1" id="template"></rect>
	<rect x="21" y="15" fill="#000000" width="1" height="1" id="template"></rect>
	<rect x="23" y="15" fill="#000000" width="1" height="1" id="template"></rect>
	<rect x="28" y="15" fill="#000000" width="1" height="1" id="template"></rect>
	<rect x="30" y="15" fill="#000000" width="1" height="1" id="template"></rect>
	<rect x="1" y="16" fill="#000000" width="1" height="1" id="template"></rect>
	<rect x="3" y="16" fill="#000000" width="1" height="1" id="template"></rect>
	<rect x="4" y="16" fill="#000000" width="1" height="1" id="template"></rect>
	<rect x="6" y="16" fill="#000000" width="1" height="1" id="template"></rect>
	<rect x="7" y="16" fill="#000000" width="1" height="1" id="template"></rect>
	<rect x="9" y="16" fill="#000000" width="1" height="1" id="template"></rect>
	<rect x="12" y="16" fill="#000000" width="1" height="1" id="template"></rect>
	<rect x="14" y="16" fill="#000000" width="1" height="1" id="template"></rect>
	<rect x="15" y="16" fill="#000000" width="1" height="1" id="template"></rect>
	<rect x="18" y="16" fill="#000000" width="1" height="1" id="template"></rect>
	<rect x="21" y="16" fill="#000000" width="1" height="1" id="template"></rect>
	<rect x="22" y="16" fill="#000000" width="1" height="1" id="template"></rect>
	<rect x="25" y="16" fill="#000000" width="1" height="1" id="template"></rect>
	<rect x="26" y="16" fill="#000000" width="1" height="1" id="template"></rect>
	<rect x="28" y="16" fill="#000000" width="1" height="1" id="template"></rect>
	<rect x="29" y="16" fill="#000000" width="1" height="1" id="template"></rect>
	<rect x="30" y="16" fill="#000000" width="1" height="1" id="template"></rect>
	<rect x="31" y="16" fill="#000000" width="1" height="1" id="template"></rect>
	<rect x="32" y="16" fill="#000000" width="1" height="1" id="template"></rect>
	<rect x="2" y="17" fill="#000000" width="1" height="1" id="template"></rect>
	<rect x="3" y="17" fill="#000000" width="1" height="1" id="template"></rect>
	<rect x="4" y="17" fill="#000000" width="1" height="1" id="template"></rect>
	<rect x="7" y="17" fill="#000000" width="1" height="1" id="template"></rect>
	<rect x="8" y="17" fill="#000000" width="1" height="1" id="template"></rect>
	<rect x="9" y="17" fill="#000000" width="1" height="1" id="template"></rect>
	<rect x="10" y="17" fill="#000000" width="1" height="1" id="template"></rect>
	<rect x="14" y="17" fill="#000000" width="1" height="1" id="template"></rect>
	<rect x="15" y="17" fill="#000000" width="1" height="1" id="template"></rect>
	<rect x="20" y="17" fill="#000000" width="1" height="1" id="template"></rect>
	<rect x="22" y="17" fill="#000000" width="1" height="1" id="template"></rect>
	<rect x="23" y="17" fill="#000000" width="1" height="1" id="template"></rect>
	<rect x="25" y="17" fill="#000000" width="1" height="1" id="template"></rect>
	<rect x="26" y="17" fill="#000000" width="1" height="1" id="template"></rect>
	<rect x="27" y="17" fill="#000000" width="1" height="1" id="template"></rect>
	<rect x="28" y="17" fill="#000000" width="1" height="1" id="template"></rect>
	<rect x="29" y="17" fill="#000000" width="1" height="1" id="template"></rect>
	<rect x="30" y="17" fill="#000000" width="1" height="1" id="template"></rect>
	<rect x="32" y="17" fill="#000000" width="1" height="1" id="template"></rect>
	<rect x="2" y="18" fill="#000000" width="1" height="1" id="template"></rect>
	<rect x="3" y="18" fill="#000000" width="1" height="1" id="template"></rect>
	<rect x="5" y="18" fill="#000000" width="1" height="1" id="template"></rect>
	<rect x="6" y="18" fill="#000000" width="1" height="1" id="template"></rect>
	<rect x="7" y="18" fill="#000000" width="1" height="1" id="template"></rect>
	<rect x="8" y="18" fill="#000000" width="1" height="1" id="template"></rect>
	<rect x="9" y="18" fill="#000000" width="1" height="1" id="template"></rect>
	<rect x="13" y="18" fill="#000000" width="1" height="1" id="template"></rect>
	<rect x="14" y="18" fill="#000000" width="1" height="1" id="template"></rect>
	<rect x="15" y="18" fill="#000000" width="1" height="1" id="template"></rect>
	<rect x="16" y="18" fill="#000000" width="1" height="1" id="template"></rect>
	<rect x="20" y="18" fill="#000000" width="1" height="1" id="template"></rect>
	<rect x="21" y="18" fill="#000000" width="1" height="1" id="template"></rect>
	<rect x="22" y="18" fill="#000000" width="1" height="1" id="template"></rect>
	<rect x="24" y="18" fill="#000000" width="1" height="1" id="template"></rect>
	<rect x="26" y="18" fill="#000000" width="1" height="1" id="template"></rect>
	<rect x="28" y="18" fill="#000000" width="1" height="1" id="template"></rect>
	<rect x="29" y="18" fill="#000000" width="1" height="1" id="template"></rect>
	<rect x="31" y="18" fill="#000000" width="1" height="1" id="template"></rect>
	<rect x="1" y="19" fill="#000000" width="1" height="1" id="template"></rect>
	<rect x="2" y="19" fill="#000000" width="1" height="1" id="template"></rect>
	<rect x="3" y="19" fill="#000000" width="1" height="1" id="template"></rect>
	<rect x="8" y="19" fill="#000000" width="1" height="1" id="template"></rect>
	<rect x="9" y="19" fill="#000000" width="1" height="1" id="template"></rect>
	<rect x="11" y="19" fill="#000000" width="1" height="1" id="template"></rect>
	<rect x="13" y="19" fill="#000000" width="1" height="1" id="template"></rect>
	<rect x="14" y="19" fill="#000000" width="1" height="1" id="template"></rect>
	<rect x="17" y="19" fill="#000000" width="1" height="1" id="template"></rect>
	<rect x="20" y="19" fill="#000000" width="1" height="1" id="template"></rect>
	<rect x="23" y="19" fill="#000000" width="1" height="1" id="template"></rect>
	<rect x="24" y="19" fill="#000000" width="1" height="1" id="template"></rect>
	<rect x="25" y="19" fill="#000000" width="1" height="1" id="template"></rect>
	<rect x="26" y="19" fill="#000000" width="1" height="1" id="template"></rect>
	<rect x="27" y="19" fill="#000000" width="1" height="1" id="template"></rect>
	<rect x="28" y="19" fill="#000000" width="1" height="1" id="template"></rect>
	<rect x="29" y="19" fill="#000000" width="1" height="1" id="template"></rect>
	<rect x="32" y="19" fill="#000000" width="1" height="1" id="template"></rect>
	<rect x="0" y="20" fill="#000000" width="1" height="1" id="template"></rect>
	<rect x="1" y="20" fill="#000000" width="1" height="1" id="template"></rect>
	<rect x="4" y="20" fill="#000000" width="1" height="1" id="template"></rect>
	<rect x="5" y="20" fill="#000000" width="1" height="1" id="template"></rect>
	<rect x="6" y="20" fill="#000000" width="1" height="1" id="template"></rect>
	<rect x="7" y="20" fill="#000000" width="1" height="1" id="template"></rect>
	<rect x="8" y="20" fill="#000000" width="1" height="1" id="template"></rect>
	<rect x="10" y="20" fill="#000000" width="1" height="1" id="template"></rect>
	<rect x="13" y="20" fill="#000000" width="1" height="1" id="template"></rect>
	<rect x="14" y="20" fill="#000000" width="1" height="1" id="template"></rect>
	<rect x="16" y="20" fill="#000000" width="1" height="1" id="template"></rect>
	<rect x="17" y="20" fill="#000000" width="1" height="1" id="template"></rect>
	<rect x="18" y="20" fill="#000000" width="1" height="1" id="template"></rect>
	<rect x="19" y="20" fill="#000000" width="1" height="1" id="template"></rect>
	<rect x="21" y="20" fill="#000000" width="1" height="1" id="template"></rect>
	<rect x="23" y="20" fill="#000000" width="1" height="1" id="template"></rect>
	<rect x="30" y="20" fill="#000000" width="1" height="1" id="template"></rect>
	<rect x="0" y="21" fill="#000000" width="1" height="1" id="template"></rect>
	<rect x="1" y="21" fill="#000000" width="1" height="1" id="template"></rect>
	<rect x="2" y="21" fill="#000000" width="1" height="1" id="template"></rect>
	<rect x="4" y="21" fill="#000000" width="1" height="1" id="template"></rect>
	<rect x="5" y="21" fill="#000000" width="1" height="1" id="template"></rect>
	<rect x="7" y="21" fill="#000000" width="1" height="1" id="template"></rect>
	<rect x="8" y="21" fill="#000000" width="1" height="1" id="template"></rect>
	<rect x="9" y="21" fill="#000000" width="1" height="1" id="template"></rect>
	<rect x="10" y="21" fill="#000000" width="1" height="1" id="template"></rect>
	<rect x="16" y="21" fill="#000000" width="1" height="1" id="template"></rect>
	<rect x="18" y="21" fill="#000000" width="1" height="1" id="template"></rect>
	<rect x="19" y="21" fill="#000000" width="1" height="1" id="template"></rect>
	<rect x="20" y="21" fill="#000000" width="1" height="1" id="template"></rect>
	<rect x="21" y="21" fill="#000000" width="1" height="1" id="template"></rect>
	<rect x="23" y="21" fill="#000000" width="1" height="1" id="template"></rect>
	<rect x="26" y="21" fill="#000000" width="1" height="1" id="template"></rect>
	<rect x="29" y="21" fill="#000000" width="1" height="1" id="template"></rect>
	<rect x="31" y="21" fill="#000000" width="1" height="1" id="template"></rect>
	<rect x="32" y="21" fill="#000000" width="1" height="1" id="template"></rect>
	<rect x="2" y="22" fill="#000000" width="1" height="1" id="template"></rect>
	<rect x="6" y="22" fill="#000000" width="1" height="1" id="template"></rect>
	<rect x="7" y="22" fill="#000000" width="1" height="1" id="template"></rect>
	<rect x="14" y="22" fill="#000000" width="1" height="1" id="template"></rect>
	<rect x="17" y="22" fill="#000000" width="1" height="1" id="template"></rect>
	<rect x="18" y="22" fill="#000000" width="1" height="1" id="template"></rect>
	<rect x="20" y="22" fill="#000000" width="1" height="1" id="template"></rect>
	<rect x="23" y="22" fill="#000000" width="1" height="1" id="template"></rect>
	<rect x="24" y="22" fill="#000000" width="1" height="1" id="template"></rect>
	<rect x="25" y="22" fill="#000000" width="1" height="1" id="template"></rect>
	<rect x="26" y="22" fill="#000000" width="1" height="1" id="template"></rect>
	<rect x="28" y="22" fill="#000000" width="1" height="1" id="template"></rect>
	<rect x="30" y="22" fill="#000000" width="1" height="1" id="template"></rect>
	<rect x="31" y="22" fill="#000000" width="1" height="1" id="template"></rect>
	<rect x="32" y="22" fill="#000000" width="1" height="1" id="template"></rect>
	<rect x="1" y="23" fill="#000000" width="1" height="1" id="template"></rect>
	<rect x="11" y="23" fill="#000000" width="1" height="1" id="template"></rect>
	<rect x="12" y="23" fill="#000000" width="1" height="1" id="template"></rect>
	<rect x="13" y="23" fill="#000000" width="1" height="1" id="template"></rect>
	<rect x="14" y="23" fill="#000000" width="1" height="1" id="template"></rect>
	<rect x="18" y="23" fill="#000000" width="1" height="1" id="template"></rect>
	<rect x="26" y="23" fill="#000000" width="1" height="1" id="template"></rect>
	<rect x="28" y="23" fill="#000000" width="1" height="1" id="template"></rect>
	<rect x="29" y="23" fill="#000000" width="1" height="1" id="template"></rect>
	<rect x="31" y="23" fill="#000000" width="1" height="1" id="template"></rect>
	<rect x="0" y="24" fill="#000000" width="1" height="1" id="template"></rect>
	<rect x="2" y="24" fill="#000000" width="1" height="1" id="template"></rect>
	<rect x="6" y="24" fill="#000000" width="1" height="1" id="template"></rect>
	<rect x="7" y="24" fill="#000000" width="1" height="1" id="template"></rect>
	<rect x="9" y="24" fill="#000000" width="1" height="1" id="template"></rect>
	<rect x="10" y="24" fill="#000000" width="1" height="1" id="template"></rect>
	<rect x="11" y="24" fill="#000000" width="1" height="1" id="template"></rect>
	<rect x="15" y="24" fill="#000000" width="1" height="1" id="template"></rect>
	<rect x="16" y="24" fill="#000000" width="1" height="1" id="template"></rect>
	<rect x="17" y="24" fill="#000000" width="1" height="1" id="template"></rect>
	<rect x="20" y="24" fill="#000000" width="1" height="1" id="template"></rect>
	<rect x="22" y="24" fill="#000000" width="1" height="1" id="template"></rect>
	<rect x="24" y="24" fill="#000000" width="1" height="1" id="template"></rect>
	<rect x="25" y="24" fill="#000000" width="1" height="1" id="template"></rect>
	<rect x="26" y="24" fill="#000000" width="1" height="1" id="template"></rect>
	<rect x="27" y="24" fill="#000000" width="1" height="1" id="template"></rect>
	<rect x="28" y="24" fill="#000000" width="1" height="1" id="template"></rect>
	<rect x="32" y="24" fill="#000000" width="1" height="1" id="template"></rect>
	<rect x="8" y="25" fill="#000000" width="1" height="1" id="template"></rect>
	<rect x="9" y="25" fill="#000000" width="1" height="1" id="template"></rect>
	<rect x="10" y="25" fill="#000000" width="1" height="1" id="template"></rect>
	<rect x="11" y="25" fill="#000000" width="1" height="1" id="template"></rect>
	<rect x="13" y="25" fill="#000000" width="1" height="1" id="template"></rect>
	<rect x="15" y="25" fill="#000000" width="1" height="1" id="template"></rect>
	<rect x="16" y="25" fill="#000000" width="1" height="1" id="template"></rect>
	<rect x="17" y="25" fill="#000000" width="1" height="1" id="template"></rect>
	<rect x="18" y="25" fill="#000000" width="1" height="1" id="template"></rect>
	<rect x="19" y="25" fill="#000000" width="1" height="1" id="template"></rect>
	<rect x="22" y="25" fill="#000000" width="1" height="1" id="template"></rect>
	<rect x="23" y="25" fill="#000000" width="1" height="1" id="template"></rect>
	<rect x="24" y="25" fill="#000000" width="1" height="1" id="template"></rect>
	<rect x="28" y="25" fill="#000000" width="1" height="1" id="template"></rect>
	<rect x="30" y="25" fill="#000000" width="1" height="1" id="template"></rect>
	<rect x="0" y="26" fill="#000000" width="1" height="1" id="template"></rect>
	<rect x="1" y="26" fill="#000000" width="1" height="1" id="template"></rect>
	<rect x="2" y="26" fill="#000000" width="1" height="1" id="template"></rect>
	<rect x="3" y="26" fill="#000000" width="1" height="1" id="template"></rect>
	<rect x="4" y="26" fill="#000000" width="1" height="1" id="template"></rect>
	<rect x="5" y="26" fill="#000000" width="1" height="1" id="template"></rect>
	<rect x="6" y="26" fill="#000000" width="1" height="1" id="template"></rect>
	<rect x="10" y="26" fill="#000000" width="1" height="1" id="template"></rect>
	<rect x="12" y="26" fill="#000000" width="1" height="1" id="template"></rect>
	<rect x="14" y="26" fill="#000000" width="1" height="1" id="template"></rect>
	<rect x="19" y="26" fill="#000000" width="1" height="1" id="template"></rect>
	<rect x="23" y="26" fill="#000000" width="1" height="1" id="template"></rect>
	<rect x="24" y="26" fill="#000000" width="1" height="1" id="template"></rect>
	<rect x="26" y="26" fill="#000000" width="1" height="1" id="template"></rect>
	<rect x="28" y="26" fill="#000000" width="1" height="1" id="template"></rect>
	<rect x="29" y="26" fill="#000000" width="1" height="1" id="template"></rect>
	<rect x="30" y="26" fill="#000000" width="1" height="1" id="template"></rect>
	<rect x="0" y="27" fill="#000000" width="1" height="1" id="template"></rect>
	<rect x="6" y="27" fill="#000000" width="1" height="1" id="template"></rect>
	<rect x="10" y="27" fill="#000000" width="1" height="1" id="template"></rect>
	<rect x="12" y="27" fill="#000000" width="1" height="1" id="template"></rect>
	<rect x="13" y="27" fill="#000000" width="1" height="1" id="template"></rect>
	<rect x="15" y="27" fill="#000000" width="1" height="1" id="template"></rect>
	<rect x="18" y="27" fill="#000000" width="1" height="1" id="template"></rect>
	<rect x="19" y="27" fill="#000000" width="1" height="1" id="template"></rect>
	<rect x="21" y="27" fill="#000000" width="1" height="1" id="template"></rect>
	<rect x="23" y="27" fill="#000000" width="1" height="1" id="template"></rect>
	<rect x="24" y="27" fill="#000000" width="1" height="1" id="template"></rect>
	<rect x="28" y="27" fill="#000000" width="1" height="1" id="template"></rect>
	<rect x="29" y="27" fill="#000000" width="1" height="1" id="template"></rect>
	<rect x="30" y="27" fill="#000000" width="1" height="1" id="template"></rect>
	<rect x="31" y="27" fill="#000000" width="1" height="1" id="template"></rect>
	<rect x="0" y="28" fill="#000000" width="1" height="1" id="template"></rect>
	<rect x="2" y="28" fill="#000000" width="1" height="1" id="template"></rect>
	<rect x="3" y="28" fill="#000000" width="1" height="1" id="template"></rect>
	<rect x="4" y="28" fill="#000000" width="1" height="1" id="template"></rect>
	<rect x="6" y="28" fill="#000000" width="1" height="1" id="template"></rect>
	<rect x="9" y="28" fill="#000000" width="1" height="1" id="template"></rect>
	<rect x="11" y="28" fill="#000000" width="1" height="1" id="template"></rect>
	<rect x="18" y="28" fill="#000000" width="1" height="1" id="template"></rect>
	<rect x="20" y="28" fill="#000000" width="1" height="1" id="template"></rect>
	<rect x="21" y="28" fill="#000000" width="1" height="1" id="template"></rect>
	<rect x="23" y="28" fill="#000000" width="1" height="1" id="template"></rect>
	<rect x="24" y="28" fill="#000000" width="1" height="1" id="template"></rect>
	<rect x="25" y="28" fill="#000000" width="1" height="1" id="template"></rect>
	<rect x="26" y="28" fill="#000000" width="1" height="1" id="template"></rect>
	<rect x="27" y="28" fill="#000000" width="1" height="1" id="template"></rect>
	<rect x="28" y="28" fill="#000000" width="1" height="1" id="template"></rect>
	<rect x="29" y="28" fill="#000000" width="1" height="1" id="template"></rect>
	<rect x="30" y="28" fill="#000000" width="1" height="1" id="template"></rect>
	<rect x="0" y="29" fill="#000000" width="1" height="1" id="template"></rect>
	<rect x="2" y="29" fill="#000000" width="1" height="1" id="template"></rect>
	<rect x="3" y="29" fill="#000000" width="1" height="1" id="template"></rect>
	<rect x="4" y="29" fill="#000000" width="1" height="1" id="template"></rect>
	<rect x="6" y="29" fill="#000000" width="1" height="1" id="template"></rect>
	<rect x="8" y="29" fill="#000000" width="1" height="1" id="template"></rect>
	<rect x="9" y="29" fill="#000000" width="1" height="1" id="template"></rect>
	<rect x="10" y="29" fill="#000000" width="1" height="1" id="template"></rect>
	<rect x="12" y="29" fill="#000000" width="1" height="1" id="template"></rect>
	<rect x="13" y="29" fill="#000000" width="1" height="1" id="template"></rect>
	<rect x="15" y="29" fill="#000000" width="1" height="1" id="template"></rect>
	<rect x="18" y="29" fill="#000000" width="1" height="1" id="template"></rect>
	<rect x="20" y="29" fill="#000000" width="1" height="1" id="template"></rect>
	<rect x="21" y="29" fill="#000000" width="1" height="1" id="template"></rect>
	<rect x="22" y="29" fill="#000000" width="1" height="1" id="template"></rect>
	<rect x="27" y="29" fill="#000000" width="1" height="1" id="template"></rect>
	<rect x="32" y="29" fill="#000000" width="1" height="1" id="template"></rect>
	<rect x="0" y="30" fill="#000000" width="1" height="1" id="template"></rect>
	<rect x="2" y="30" fill="#000000" width="1" height="1" id="template"></rect>
	<rect x="3" y="30" fill="#000000" width="1" height="1" id="template"></rect>
	<rect x="4" y="30" fill="#000000" width="1" height="1" id="template"></rect>
	<rect x="6" y="30" fill="#000000" width="1" height="1" id="template"></rect>
	<rect x="8" y="30" fill="#000000" width="1" height="1" id="template"></rect>
	<rect x="11" y="30" fill="#000000" width="1" height="1" id="template"></rect>
	<rect x="12" y="30" fill="#000000" width="1" height="1" id="template"></rect>
	<rect x="15" y="30" fill="#000000" width="1" height="1" id="template"></rect>
	<rect x="20" y="30" fill="#000000" width="1" height="1" id="template"></rect>
	<rect x="21" y="30" fill="#000000" width="1" height="1" id="template"></rect>
	<rect x="22" y="30" fill="#000000" width="1" height="1" id="template"></rect>
	<rect x="23" y="30" fill="#000000" width="1" height="1" id="template"></rect>
	<rect x="24" y="30" fill="#000000" width="1" height="1" id="template"></rect>
	<rect x="26" y="30" fill="#000000" width="1" height="1" id="template"></rect>
	<rect x="0" y="31" fill="#000000" width="1" height="1" id="template"></rect>
	<rect x="6" y="31" fill="#000000" width="1" height="1" id="template"></rect>
	<rect x="8" y="31" fill="#000000" width="1" height="1" id="template"></rect>
	<rect x="12" y="31" fill="#000000" width="1" height="1" id="template"></rect>
	<rect x="16" y="31" fill="#000000" width="1" height="1" id="template"></rect>
	<rect x="17" y="31" fill="#000000" width="1" height="1" id="template"></rect>
	<rect x="18" y="31" fill="#000000" width="1" height="1" id="template"></rect>
	<rect x="19" y="31" fill="#000000" width="1" height="1" id="template"></rect>
	<rect x="22" y="31" fill="#000000" width="1" height="1" id="template"></rect>
	<rect x="24" y="31" fill="#000000" width="1" height="1" id="template"></rect>
	<rect x="27" y="31" fill="#000000" width="1" height="1" id="template"></rect>
	<rect x="28" y="31" fill="#000000" width="1" height="1" id="template"></rect>
	<rect x="32" y="31" fill="#000000" width="1" height="1" id="template"></rect>
	<rect x="0" y="32" fill="#000000" width="1" height="1" id="template"></rect>
	<rect x="1" y="32" fill="#000000" width="1" height="1" id="template"></rect>
	<rect x="2" y="32" fill="#000000" width="1" height="1" id="template"></rect>
	<rect x="3" y="32" fill="#000000" width="1" height="1" id="template"></rect>
	<rect x="4" y="32" fill="#000000" width="1" height="1" id="template"></rect>
	<rect x="5" y="32" fill="#000000" width="1" height="1" id="template"></rect>
	<rect x="6" y="32" fill="#000000" width="1" height="1" id="template"></rect>
	<rect x="8" y="32" fill="#000000" width="1" height="1" id="template"></rect>
	<rect x="9" y="32" fill="#000000" width="1" height="1" id="template"></rect>
	<rect x="11" y="32" fill="#000000" width="1" height="1" id="template"></rect>
	<rect x="12" y="32" fill="#000000" width="1" height="1" id="template"></rect>
	<rect x="13" y="32" fill="#000000" width="1" height="1" id="template"></rect>
	<rect x="17" y="32" fill="#000000" width="1" height="1" id="template"></rect>
	<rect x="18" y="32" fill="#000000" width="1" height="1" id="template"></rect>
	<rect x="21" y="32" fill="#000000" width="1" height="1" id="template"></rect>
	<rect x="23" y="32" fill="#000000" width="1" height="1" id="template"></rect>
	<rect x="27" y="32" fill="#000000" width="1" height="1" id="template"></rect>
	<rect x="30" y="32" fill="#000000" width="1" height="1" id="template"></rect>
</svg>
