<svg viewBox="0 0 25 25" width="100%" height="100%" fill="#ffffff" version="1.1" xmlns="http://www.w3.org/2000/svg" xmlns:xlink="http://www.w3.org/1999/xlink">
	<rect fill="#ffffff" width="100%" height="100%"></rect>
	<rect fill="#000000" width="1" height="1" id="template"></rect>
	<rect x="0" y="0" fill="#000000" width="1" height="1" id="template"></rect>
	<rect x="1" y="0" fill="#000000" width="1" height="1" id="template"></rect>
	<rect x="2" y="0" fill="#000000" width="1" height="1" id="template"></rect>
	<rect x="3" y="0" fill="#000000" width="1" height="1" id="template"></rect>
	<rect x="4" y="0" fill="#000000" width="1" height="1" id="template"></rect>
	<rect x="5" y="0" fill="#000000" width="1" height="1" id="template"></rect>
	<rect x="6" y="0" fill="#000000" width="1" height="1" id="template"></rect>
	<rect x="9" y="0" fill="#000000" width="1" height="1" id="template"></rect>
	<rect x="12" y="0" fill="#000000" width="1" height="1" id="template"></rect>
	<rect x="13" y="0" fill="#000000" width="1" height="1" id="template"></rect>
	<rect x="14" y="0" fill="#000000" width="1" height="1" id="template"></rect>
	<rect x="15" y="0" fill="#000000" width="1" height="1" id="template"></rect>
	<rect x="18" y="0" fill="#000000" width="1" height="1" id="template"></rect>
	<rect x="19" y="0" fill="#000000" width="1" height="1" id="template"></rect>
	<rect x="20" y="0" fill="#000000" width="1" height="1" id="template"></rect>
	<rect x="21" y="0" fill="#000000" width="1" height="1" id="template"></rect>
	<rect x="22" y="0" fill="#000000" width="1" height="1" id="template"></rect>
	<rect x="23" y="0" fill="#000000" width="1" height="1" id="template"></rect>
	<rect x="24" y="0" fill="#000000" width="1" height="1" id="template"></rect>
	<rect x="0" y="1" fill="#000000" width="1" height="1" id="template"></rect>
	<rect x="6" y="1" fill="#000000" width="1" height="1" id="template"></rect>
	<rect x="10" y="1" fill="#000000" width="1" height="1" id="template"></rect>
	<rect x="11" y="1" fill="#000000" width="1" height="1" id="template"></rect>
	<rect x="12" y="1" fill="#000000" width="1" height="1" id="template"></rect>
	<rect x="13" y="1" fill="#000000" width="1" height="1" id="template"></rect>
	<rect x="15" y="1" fill="#000000" width="1" height="1" id="template"></rect>
	<rect x="18" y="1" fill="#000000" width="1" height="1" id="template"></rect>
	<rect x="24" y="1" fill="#000000" width="1" height="1" id="template"></rect>
	<rect x="0" y="2" fill="#000000" width="1" height="1" id="template"></rect>
	<rect x="2" y="2" fill="#000000" width="1" height="1" id="template"></rect>
	<rect x="3" y="2" fill="#000000" width="1" height="1" id="template"></rect>
	<rect x="4" y="2" fill="#000000" width="1" height="1" id="template"></rect>
	<rect x="6" y="2" fill="#000000" width="1" height="1" id="template"></rect>
	<rect x="8" y="2" fill="#000000" width="1" height="1" id="template"></rect>
	<rect x="9" y="2" fill="#000000" width="1" height="1" id="template"></rect>
	<rect x="10" y="2" fill="#000000" width="1" height="1" id="template"></rect>
	<rect x="12" y="2" fill="#000000" width="1" height="1" id="template"></rect>
	<rect x="18" y="2" fill="#000000" width="1" height="1" id="template"></rect>
	<rect x="20" y="2" fill="#000000" width="1" height="1" id="template"></rect>
	<rect x="21" y="2" fill="#000000" width="1" height="1" id="template"></rect>
	<rect x="22" y="2" fill="#000000" width="1" height="1" id="template"></rect>
	<rect x="24" y="2" fill="#000000" width="1" height="1" id="template"></rect>
	<rect x="0" y="3" fill="#000000" width="1" height="1" id="template"></rect>
	<rect x="2" y="3" fill="#000000" width="1" height="1" id="template"></rect>
	<rect x="3" y="3" fill="#000000" width="1" height="1" id="template"></rect>
	<rect x="4" y="3" fill="#000000" width="1" height="1" id="template"></rect>
	<rect x="6" y="3" fill="#000000" width="1" height="1" id="template"></rect>
	<rect x="9" y="3" fill="#000000" width="1" height="1" id="template"></rect>
	<rect x="10" y="3" fill="#000000" width="1" height="1" id="template"></rect>
	<rect x="11" y="3" fill="#000000" width="1" height="1" id="template"></rect>
	<rect x="14" y="3" fill="#000000" width="1" height="1" id="template"></rect>
	<rect x="15" y="3" fill="#000000" width="1" height="1" id="template"></rect>
	<rect x="18" y="3" fill="#000000" width="1" height="1" id="template"></rect>
	<rect x="20" y="3" fill="#000000" width="1" height="1" id="template"></rect>
	<rect x="21" y="3" fill="#000000" width="1" height="1" id="template"></rect>
	<rect x="22" y="3" fill="#000000" width="1" height="1" id="template"></rect>
	<rect x="24" y="3" fill="#000000" width="1" height="1" id="template"></rect>
	<rect x="0" y="4" fill="#000000" width="1" height="1" id="template"></rect>
	<rect x="2" y="4" fill="#000000" width="1" height="1" id="template"></rect>
	<rect x="3" y="4" fill="#000000" width="1" height="1" id="template"></rect>
	<rect x="4" y="4" fill="#000000" width="1" height="1" id="template"></rect>
	<rect x="6" y="4" fill="#000000" width="1" height="1" id="template"></rect>
	<rect x="10" y="4" fill="#000000" width="1" height="1" id="template"></rect>
	<rect x="14" y="4" fill="#000000" width="1" height="1" id="template"></rect>
	<rect x="15" y="4" fill="#000000" width="1" height="1" id="template"></rect>
	<rect x="18" y="4" fill="#000000" width="1" height="1" id="template"></rect>
	<rect x="20" y="4" fill="#000000" width="1" height="1" id="template"></rect>
	<rect x="21" y="4" fill="#000000" width="1" height="1" id="template"></rect>
	<rect x="22" y="4" fill="#000000" width="1" height="1" id="template"></rect>
	<rect x="24" y="4" fill="#000000" width="1" height="1" id="template"></rect>
	<rect x="0" y="5" fill="#000000" width="1" height="1" id="template"></rect>
	<rect x="6" y="5" fill="#000000" width="1" height="1" id="template"></rect>
	<rect x="9" y="5" fill="#000000" width="1" height="1" id="template"></rect>
	<rect x="14" y="5" fill="#000000" width="1" height="1" id="template"></rect>
	<rect x="15" y="5" fill="#000000" width="1" height="1" id="template"></rect>
	<rect x="18" y="5" fill="#000000" width="1" height="1" id="template"></rect>
	<rect x="24" y="5" fill="#000000" width="1" height="1" id="template"></rect>
	<rect x="0" y="6" fill="#000000" width="1" height="1" id="template"></rect>
	<rect x="1" y="6" fill="#000000" width="1" height="1" id="template"></rect>
	<rect x="2" y="6" fill="#000000" width="1" height="1" id="template"></rect>
	<rect x="3" y="6" fill="#000000" width="1" height="1" id="template"></rect>
	<rect x="4" y="6" fill="#000000" width="1" height="1" id="template"></rect>
	<rect x="5" y="6" fill="#000000" width="1" height="1" id="template"></rect>
	<rect x="6" y="6" fill="#000000" width="1" height="1" id="template"></rect>
	<rect x="8" y="6" fill="#000000" width="1" height="1" id="template"></rect>
	<rect x="10" y="6" fill="#000000" width="1" height="1" id="template"></rect>
	<rect x="12" y="6" fill="#000000" width="1" height="1" id="template"></rect>
	<rect x="14" y="6" fill="#000000" width="1" height="1" id="template"></rect>
	<rect x="16" y="6" fill="#000000" width="1" height="1" id="template"></rect>
	<rect x="18" y="6" fill="#000000" width="1" height="1" id="template"></rect>
	<rect x="19" y="6" fill="#000000" width="1" height="1" id="template"></rect>
	<rect x="20" y="6" fill="#000000" width="1" height="1" id="template"></rect>
	<rect x="21" y="6" fill="#000000" width="1" height="1" id="template"></rect>
	<rect x="22" y="6" fill="#000000" width="1" height="1" id="template"></rect>
	<rect x="23" y="6" fill="#000000" width="1" height="1" id="template"></rect>
	<rect x="24" y="6" fill="#000000" width="1" height="1" id="template"></rect>
	<rect x="8" y="7" fill="#000000" width="1" height="1" id="template"></rect>
	<rect x="9" y="7" fill="#000000" width="1" height="1" id="template"></rect>
	<rect x="10" y="7" fill="#000000" width="1" height="1" id="template"></rect>
	<rect x="12" y="7" fill="#000000" width="1" height="1" id="template"></rect>
	<rect x="13" y="7" fill="#000000" width="1" height="1" id="template"></rect>
	<rect x="14" y="7" fill="#000000" width="1" height="1" id="template"></rect>
	<rect x="16" y="7" fill="#000000" width="1" height="1" id="template"></rect>
	<rect x="0" y="8" fill="#000000" width="1" height="1" id="template"></rect>
	<rect x="1" y="8" fill="#000000" width="1" height="1" id="template"></rect>
	<rect x="2" y="8" fill="#000000" width="1" height="1" id="template"></rect>
	<rect x="4" y="8" fill="#000000" width="1" height="1" id="template"></rect>
	<rect x="5" y="8" fill="#000000" width="1" height="1" id="template"></rect>
	<rect x="6" y="8" fill="#000000" width="1" height="1" id="template"></rect>
	<rect x="7" y="8" fill="#000000" width="1" height="1" id="template"></rect>
	<rect x="8" y="8" fill="#000000" width="1" height="1" id="template"></rect>
	<rect x="10" y="8" fill="#000000" width="1" height="1" id="template"></rect>
	<rect x="11" y="8" fill="#000000" width="1" height="1" id="template"></rect>
	<rect x="13" y="8" fill="#000000" width="1" height="1" id="template"></rect>
	<rect x="15" y="8" fill="#000000" width="1" height="1" id="template"></rect>
	<rect x="16" y="8" fill="#000000" width="1" height="1" id="template"></rect>
	<rect x="17" y="8" fill="#000000" width="1" height="1" id="template"></rect>
	<rect x="18" y="8" fill="#000000" width="1" height="1" id="template"></rect>
	<rect x="22" y="8" fill="#000000" width="1" height="1" id="template"></rect>
	<rect x="0" y="9" fill="#000000" width="1" height="1" id="template"></rect>
	<rect x="1" y="9" fill="#000000" width="1" height="1" id="template"></rect>
	<rect x="2" y="9" fill="#000000" width="1" height="1" id="template"></rect>
	<rect x="5" y="9" fill="#000000" width="1" height="1" id="template"></rect>
	<rect x="7" y="9" fill="#000000" width="1" height="1" id="template"></rect>
	<rect x="8" y="9" fill="#000000" width="1" height="1" id="template"></rect>
	<rect x="10" y="9" fill="#000000" width="1" height="1" id="template"></rect>
	<rect x="11" y="9" fill="#000000" width="1" height="1" id="template"></rect>
	<rect x="17" y="9" fill="#000000" width="1" height="1" id="template"></rect>
	<rect x="18" y="9" fill="#000000" width="1" height="1" id="template"></rect>
	<rect x="24" y="9" fill="#000000" width="1" height="1" id="template"></rect>
	<rect x="2" y="10" fill="#000000" width="1" height="1" id="template"></rect>
	<rect x="3" y="10" fill="#000000" width="1" height="1" id="template"></rect>
	<rect x="4" y="10" fill="#000000" width="1" height="1" id="template"></rect>
	<rect x="6" y="10" fill="#000000" width="1" height="1" id="template"></rect>
	<rect x="7" y="10" fill="#000000" width="1" height="1" id="template"></rect>
	<rect x="9" y="10" fill="#000000" width="1" height="1" id="template"></rect>
	<rect x="14" y="10" fill="#000000" width="1" height="1" id="template"></rect>
	<rect x="18" y="10" fill="#000000" width="1" height="1" id="template"></rect>
	<rect x="19" y="10" fill="#000000" width="1" height="1" id="template"></rect>
	<rect x="22" y="10" fill="#000000" width="1" height="1" id="template"></rect>
	<rect x="23" y="10" fill="#000000" width="1" height="1" id="template"></rect>
	<rect x="24" y="10" fill="#000000" width="1" height="1" id="template"></rect>
	<rect x="0" y="11" fill="#000000" width="1" height="1" id="template"></rect>
	<rect x="1" y="11" fill="#000000" width="1" height="1" id="template"></rect>
	<rect x="3" y="11" fill="#000000" width="1" height="1" id="template"></rect>
	<rect x="8" y="11" fill="#000000" width="1" height="1" id="template"></rect>
	<rect x="11" y="11" fill="#000000" width="1" height="1" id="template"></rect>
	<rect x="13" y="11" fill="#000000" width="1" height="1" id="template"></rect>
	<rect x="14" y="11" fill="#000000" width="1" height="1" id="template"></rect>
	<rect x="15" y="11" fill="#000000" width="1" height="1" id="template"></rect>
	<rect x="17" y="11" fill="#000000" width="1" height="1" id="template"></rect>
	<rect x="18" y="11" fill="#000000" width="1" height="1" id="template"></rect>
	<rect x="20" y="11" fill="#000000" width="1" height="1" id="template"></rect>
	<rect x="23" y="11" fill="#000000" width="1" height="1" id="template"></rect>
	<rect x="0" y="12" fill="#000000" width="1" height="1" id="template"></rect>
	<rect x="3" y="12" fill="#000000" width="1" height="1" id="template"></rect>
	<rect x="6" y="12" fill="#000000" width="1" height="1" id="template"></rect>
	<rect x="7" y="12" fill="#000000" width="1" height="1" id="template"></rect>
	<rect x="12" y="12" fill="#000000" width="1" height="1" id="template"></rect>
	<rect x="13" y="12" fill="#000000" width="1" height="1" id="template"></rect>
	<rect x="16" y="12" fill="#000000" width="1" height="1" id="template"></rect>
	<rect x="17" y="12" fill="#000000" width="1" height="1" id="template"></rect>
	<rect x="18" y="12" fill="#000000" width="1" height="1" id="template"></rect>
	<rect x="21" y="12" fill="#000000" width="1" height="1" id="template"></rect>
	<rect x="23" y="12" fill="#000000" width="1" height="1" id="template"></rect>
	<rect x="24" y="12" fill="#000000" width="1" height="1" id="template"></rect>
	<rect x="4" y="13" fill="#000000" width="1" height="1" id="template"></rect>
	<rect x="8" y="13" fill="#000000" width="1" height="1" id="template"></rect>
	<rect x="9" y="13" fill="#000000" width="1" height="1" id="template"></rect>
	<rect x="11" y="13" fill="#000000" width="1" height="1" id="template"></rect>
	<rect x="12" y="13" fill="#000000" width="1" height="1" id="template"></rect>
	<rect x="13" y="13" fill="#000000" width="1" height="1" id="template"></rect>
	<rect x="14" y="13" fill="#000000" width="1" height="1" id="template"></rect>
	<rect x="16" y="13" fill="#000000" width="1" height="1" id="template"></rect>
	<rect x="17" y="13" fill="#000000" width="1" height="1" id="template"></rect>
	<rect x="18" y="13" fill="#000000" width="1" height="1" id="template"></rect>
	<rect x="21" y="13" fill="#000000" width="1" height="1" id="template"></rect>
	<rect x="24" y="13" fill="#000000" width="1" height="1" id="template"></rect>
	<rect x="0" y="14" fill="#000000" width="1" height="1" id="template"></rect>
	<rect x="2" y="14" fill="#000000" width="1" height="1" id="template"></rect>
	<rect x="5" y="14" fill="#000000" width="1" height="1" id="template"></rect>
	<rect x="6" y="14" fill="#000000" width="1" height="1" id="template"></rect>
	<rect x="8" y="14" fill="#000000" width="1" height="1" id="template"></rect>
	<rect x="11" y="14" fill="#000000" width="1" height="1" id="template"></rect>
	<rect x="12" y="14" fill="#000000" width="1" height="1" id="template"></rect>
	<rect x="16" y="14" fill="#000000" width="1" height="1" id="template"></rect>
	<rect x="17" y="14" fill="#000000" width="1" height="1" id="template"></rect>
	<rect x="19" y="14" fill="#000000" width="1" height="1" id="template"></rect>
	<rect x="22" y="14" fill="#000000" width="1" height="1" id="template"></rect>
	<rect x="23" y="14" fill="#000000" width="1" height="1" id="template"></rect>
	<rect x="24" y="14" fill="#000000" width="1" height="1" id="template"></rect>
	<rect x="1" y="15" fill="#000000" width="1" height="1" id="template"></rect>
	<rect x="4" y="15" fill="#000000" width="1" height="1" id="template"></rect>
	<rect x="5" y="15" fill="#000000" width="1" height="1" id="template"></rect>
	<rect x="7" y="15" fill="#000000" width="1" height="1" id="template"></rect>
	<rect x="12" y="15" fill="#000000" width="1" height="1" id="template"></rect>
	<rect x="13" y="15" fill="#000000" width="1" height="1" id="template"></rect>
	<rect x="16" y="15" fill="#000000" width="1" height="1" id="template"></rect>
	<rect x="18" y="15" fill="#000000" width="1" height="1" id="template"></rect>
	<rect x="20" y="15" fill="#000000" width="1" height="1" id="template"></rect>
	<rect x="23" y="15" fill="#000000" width="1" height="1" id="template"></rect>
	<rect x="0" y="16" fill="#000000" width="1" height="1" id="template"></rect>
	<rect x="2" y="16" fill="#000000" width="1" height="1" id="template"></rect>
	<rect x="5" y="16" fill="#000000" width="1" height="1" id="template"></rect>
	<rect x="6" y="16" fill="#000000" width="1" height="1" id="template"></rect>
	<rect x="8" y="16" fill="#000000" width="1" height="1" id="template"></rect>
	<rect x="11" y="16" fill="#000000" width="1" height="1" id="template"></rect>
	<rect x="13" y="16" fill="#000000" width="1" height="1" id="template"></rect>
	<rect x="15" y="16" fill="#000000" width="1" height="1" id="template"></rect>
	<rect x="16" y="16" fill="#000000" width="1" height="1" id="template"></rect>
	<rect x="17" y="16" fill="#000000" width="1" height="1" id="template"></rect>
	<rect x="18" y="16" fill="#000000" width="1" height="1" id="template"></rect>
	<rect x="19" y="16" fill="#000000" width="1" height="1" id="template"></rect>
	<rect x="20" y="16" fill="#000000" width="1" height="1" id="template"></rect>
	<rect x="21" y="16" fill="#000000" width="1" height="1" id="template"></rect>
	<rect x="8" y="17" fill="#000000" width="1" height="1" id="template"></rect>
	<rect x="10" y="17" fill="#000000" width="1" height="1" id="template"></rect>
	<rect x="11" y="17" fill="#000000" width="1" height="1" id="template"></rect>
	<rect x="13" y="17" fill="#000000" width="1" height="1" id="template"></rect>
	<rect x="15" y="17" fill="#000000" width="1" height="1" id="template"></rect>
	<rect x="16" y="17" fill="#000000" width="1" height="1" id="template"></rect>
	<rect x="20" y="17" fill="#000000" width="1" height="1" id="template"></rect>
	<rect x="21" y="17" fill="#000000" width="1" height="1" id="template"></rect>
	<rect x="23" y="17" fill="#000000" width="1" height="1" id="template"></rect>
	<rect x="24" y="17" fill="#000000" width="1" height="1" id="template"></rect>
	<rect x="0" y="18" fill="#000000" width="1" height="1" id="template"></rect>
	<rect x="1" y="18" fill="#000000" width="1" height="1" id="template"></rect>
	<rect x="2" y="18" fill="#000000" width="1" height="1" id="template"></rect>
	<rect x="3" y="18" fill="#000000" width="1" height="1" id="template"></rect>
	<rect x="4" y="18" fill="#000000" width="1" height="1" id="template"></rect>
	<rect x="5" y="18" fill="#000000" width="1" height="1" id="template"></rect>
	<rect x="6" y="18" fill="#000000" width="1" height="1" id="template"></rect>
	<rect x="8" y="18" fill="#000000" width="1" height="1" id="template"></rect>
	<rect x="9" y="18" fill="#000000" width="1" height="1" id="template"></rect>
	<rect x="10" y="18" fill="#000000" width="1" height="1" id="template"></rect>
	<rect x="14" y="18" fill="#000000" width="1" height="1" id="template"></rect>
	<rect x="15" y="18" fill="#000000" width="1" height="1" id="template"></rect>
	<rect x="16" y="18" fill="#000000" width="1" height="1" id="template"></rect>
	<rect x="18" y="18" fill="#000000" width="1" height="1" id="template"></rect>
	<rect x="20" y="18" fill="#000000" width="1" height="1" id="template"></rect>
	<rect x="21" y="18" fill="#000000" width="1" height="1" id="template"></rect>
	<rect x="23" y="18" fill="#000000" width="1" height="1" id="template"></rect>
	<rect x="24" y="18" fill="#000000" width="1" height="1" id="template"></rect>
	<rect x="0" y="19" fill="#000000" width="1" height="1" id="template"></rect>
	<rect x="6" y="19" fill="#000000" width="1" height="1" id="template"></rect>
	<rect x="8" y="19" fill="#000000" width="1" height="1" id="template"></rect>
	<rect x="10" y="19" fill="#000000" width="1" height="1" id="template"></rect>
	<rect x="11" y="19" fill="#000000" width="1" height="1" id="template"></rect>
	<rect x="13" y="19" fill="#000000" width="1" height="1" id="template"></rect>
	<rect x="14" y="19" fill="#000000" width="1" height="1" id="template"></rect>
	<rect x="16" y="19" fill="#000000" width="1" height="1" id="template"></rect>
	<rect x="20" y="19" fill="#000000" width="1" height="1" id="template"></rect>
	<rect x="21" y="19" fill="#000000" width="1" height="1" id="template"></rect>
	<rect x="24" y="19" fill="#000000" width="1" height="1" id="template"></rect>
	<rect x="0" y="20" fill="#000000" width="1" height="1" id="template"></rect>
	<rect x="2" y="20" fill="#000000" width="1" height="1" id="template"></rect>
	<rect x="3" y="20" fill="#000000" width="1" height="1" id="template"></rect>
	<rect x="4" y="20" fill="#000000" width="1" height="1" id="template"></rect>
	<rect x="6" y="20" fill="#000000" width="1" height="1" id="template"></rect>
	<rect x="8" y="20" fill="#000000" width="1" height="1" id="template"></rect>
	<rect x="9" y="20" fill="#000000" width="1" height="1" id="template"></rect>
	<rect x="10" y="20" fill="#000000" width="1" height="1" id="template"></rect>
	<rect x="12" y="20" fill="#000000" width="1" height="1" id="template"></rect>
	<rect x="13" y="20" fill="#000000" width="1" height="1" id="template"></rect>
	<rect x="16" y="20" fill="#000000" width="1" height="1" id="template"></rect>
	<rect x="17" y="20" fill="#000000" width="1" height="1" id="template"></rect>
	<rect x="18" y="20" fill="#000000" width="1" height="1" id="template"></rect>
	<rect x="19" y="20" fill="#000000" width="1" height="1" id="template"></rect>
	<rect x="20" y="20" fill="#000000" width="1" height="1" id="template"></rect>
	<rect x="21" y="20" fill="#000000" width="1" height="1" id="template"></rect>
	<rect x="23" y="20" fill="#000000" width="1" height="1" id="template"></rect>
	<rect x="24" y="20" fill="#000000" width="1" height="1" id="template"></rect>
	<rect x="0" y="21" fill="#000000" width="1" height="1" id="template"></rect>
	<rect x="2" y="21" fill="#000000" width="1" height="1" id="template"></rect>
	<rect x="3" y="21" fill="#000000" width="1" height="1" id="template"></rect>
	<rect x="4" y="21" fill="#000000" width="1" height="1" id="template"></rect>
	<rect x="6" y="21" fill="#000000" width="1" height="1" id="template"></rect>
	<rect x="9" y="21" fill="#000000" width="1" height="1" id="template"></rect>
	<rect x="10" y="21" fill="#000000" width="1" height="1" id="template"></rect>
	<rect x="11" y="21" fill="#000000" width="1" height="1" id="template"></rect>
	<rect x="12" y="21" fill="#000000" width="1" height="1" id="template"></rect>
	<rect x="16" y="21" fill="#000000" width="1" height="1" id="template"></rect>
	<rect x="19" y="21" fill="#000000" width="1" height="1" id="template"></rect>
	<rect x="20" y="21" fill="#000000" width="1" height="1" id="template"></rect>
	<rect x="21" y="21" fill="#000000" width="1" height="1" id="template"></rect>
	<rect x="22" y="21" fill="#000000" width="1" height="1" id="template"></rect>
	<rect x="0" y="22" fill="#000000" width="1" height="1" id="template"></rect>
	<rect x="2" y="22" fill="#000000" width="1" height="1" id="template"></rect>
	<rect x="3" y="22" fill="#000000" width="1" height="1" id="template"></rect>
	<rect x="4" y="22" fill="#000000" width="1" height="1" id="template"></rect>
	<rect x="6" y="22" fill="#000000" width="1" height="1" id="template"></rect>
	<rect x="8" y="22" fill="#000000" width="1" height="1" id="template"></rect>
	<rect x="10" y="22" fill="#000000" width="1" height="1" id="template"></rect>
	<rect x="11" y="22" fill="#000000" width="1" height="1" id="template"></rect>
	<rect x="12" y="22" fill="#000000" width="1" height="1" id="template"></rect>
	<rect x="15" y="22" fill="#000000" width="1" height="1" id="template"></rect>
	<rect x="17" y="22" fill="#000000" width="1" height="1" id="template"></rect>
	<rect x="20" y="22" fill="#000000" width="1" height="1" id="template"></rect>
	<rect x="24" y="22" fill="#000000" width="1" height="1" id="template"></rect>
	<rect x="0" y="23" fill="#000000" width="1" height="1" id="template"></rect>
	<rect x="6" y="23" fill="#000000" width="1" height="1" id="template"></rect>
	<rect x="8" y="23" fill="#000000" width="1" height="1" id="template"></rect>
	<rect x="9" y="23" fill="#000000" width="1" height="1" id="template"></rect>
	<rect x="12" y="23" fill="#000000" width="1" height="1" id="template"></rect>
	<rect x="13" y="23" fill="#000000" width="1" height="1" id="template"></rect>
	<rect x="15" y="23" fill="#000000" width="1" height="1" id="template"></rect>
	<rect x="16" y="23" fill="#000000" width="1" height="1" id="template"></rect>
	<rect x="17" y="23" fill="#000000" width="1" height="1" id="template"></rect>
	<rect x="20" y="23" fill="#000000" width="1" height="1" id="template"></rect>
	<rect x="21" y="23" fill="#000000" width="1" height="1" id="template"></rect>
	<rect x="23" y="23" fill="#000000" width="1" height="1" id="template"></rect>
	<rect x="0" y="24" fill="#000000" width="1" height="1" id="template"></rect>
	<rect x="1" y="24" fill="#000000" width="1" height="1" id="template"></rect>
	<rect x="2" y="24" fill="#000000" width="1" height="1" id="template"></rect>
	<rect x="3" y="24" fill="#000000" width="1" height="1" id="template"></rect>
	<rect x="4" y="24" fill="#000000" width="1" height="1" id="template"></rect>
	<rect x="5" y="24" fill="#000000" width="1" height="1" id="template"></rect>
	<rect x="6" y="24" fill="#000000" width="1" height="1" id="template"></rect>
	<rect x="8" y="24" fill="#000000" width="1" height="1" id="template"></rect>
	<rect x="10" y="24" fill="#000000" width="1" height="1" id="template"></rect>
	<rect x="11" y="24" fill="#000000" width="1" height="1" id="template"></rect>
	<rect x="12" y="24" fill="#000000" width="1" height="1" id="template"></rect>
	<rect x="14" y="24" fill="#000000" width="1" height="1" id="template"></rect>
	<rect x="15" y="24" fill="#000000" width="1" height="1" id="template"></rect>
	<rect x="16" y="24" fill="#000000" width="1" height="1" id="template"></rect>
	<rect x="19" y="24" fill="#000000" width="1" height="1" id="template"></rect>
	<rect x="23" y="24" fill="#000000" width="1" height="1" id="template"></rect>
	<rect x="24" y="24" fill="#000000" width="1" height="1" id="template"></rect></svg>
