<?xml version="1.0" encoding="UTF-8" standalone="no"?>
<!DOCTYPE svg PUBLIC "-//W3C//DTD SVG 1.1//EN"
"http://www.w3.org/Graphics/SVG/1.1/DTD/svg11.dtd">


<svg viewBox="0 0 29 29" width="100%" height="100%" fill="#ffffff" version="1.1" xmlns="http://www.w3.org/2000/svg" xmlns:xlink="http://www.w3.org/1999/xlink">
	<rect fill="#ffffff" width="100%" height="100%"></rect>
	<rect fill="#000000" width="1" height="1" id="template"></rect>
	<rect x="0" y="0" fill="#000000" width="1" height="1" id="template"></rect>
	<rect x="1" y="0" fill="#000000" width="1" height="1" id="template"></rect>
	<rect x="2" y="0" fill="#000000" width="1" height="1" id="template"></rect>
	<rect x="3" y="0" fill="#000000" width="1" height="1" id="template"></rect>
	<rect x="4" y="0" fill="#000000" width="1" height="1" id="template"></rect>
	<rect x="5" y="0" fill="#000000" width="1" height="1" id="template"></rect>
	<rect x="6" y="0" fill="#000000" width="1" height="1" id="template"></rect>
	<rect x="8" y="0" fill="#000000" width="1" height="1" id="template"></rect>
	<rect x="9" y="0" fill="#000000" width="1" height="1" id="template"></rect>
	<rect x="14" y="0" fill="#000000" width="1" height="1" id="template"></rect>
	<rect x="19" y="0" fill="#000000" width="1" height="1" id="template"></rect>
	<rect x="20" y="0" fill="#000000" width="1" height="1" id="template"></rect>
	<rect x="22" y="0" fill="#000000" width="1" height="1" id="template"></rect>
	<rect x="23" y="0" fill="#000000" width="1" height="1" id="template"></rect>
	<rect x="24" y="0" fill="#000000" width="1" height="1" id="template"></rect>
	<rect x="25" y="0" fill="#000000" width="1" height="1" id="template"></rect>
	<rect x="26" y="0" fill="#000000" width="1" height="1" id="template"></rect>
	<rect x="27" y="0" fill="#000000" width="1" height="1" id="template"></rect>
	<rect x="28" y="0" fill="#000000" width="1" height="1" id="template"></rect>
	<rect x="0" y="1" fill="#000000" width="1" height="1" id="template"></rect>
	<rect x="6" y="1" fill="#000000" width="1" height="1" id="template"></rect>
	<rect x="13" y="1" fill="#000000" width="1" height="1" id="template"></rect>
	<rect x="16" y="1" fill="#000000" width="1" height="1" id="template"></rect>
	<rect x="17" y="1" fill="#000000" width="1" height="1" id="template"></rect>
	<rect x="18" y="1" fill="#000000" width="1" height="1" id="template"></rect>
	<rect x="20" y="1" fill="#000000" width="1" height="1" id="template"></rect>
	<rect x="22" y="1" fill="#000000" width="1" height="1" id="template"></rect>
	<rect x="28" y="1" fill="#000000" width="1" height="1" id="template"></rect>
	<rect x="0" y="2" fill="#000000" width="1" height="1" id="template"></rect>
	<rect x="2" y="2" fill="#000000" width="1" height="1" id="template"></rect>
	<rect x="3" y="2" fill="#000000" width="1" height="1" id="template"></rect>
	<rect x="4" y="2" fill="#000000" width="1" height="1" id="template"></rect>
	<rect x="6" y="2" fill="#000000" width="1" height="1" id="template"></rect>
	<rect x="8" y="2" fill="#000000" width="1" height="1" id="template"></rect>
	<rect x="11" y="2" fill="#000000" width="1" height="1" id="template"></rect>
	<rect x="12" y="2" fill="#000000" width="1" height="1" id="template"></rect>
	<rect x="13" y="2" fill="#000000" width="1" height="1" id="template"></rect>
	<rect x="14" y="2" fill="#000000" width="1" height="1" id="template"></rect>
	<rect x="18" y="2" fill="#000000" width="1" height="1" id="template"></rect>
	<rect x="22" y="2" fill="#000000" width="1" height="1" id="template"></rect>
	<rect x="24" y="2" fill="#000000" width="1" height="1" id="template"></rect>
	<rect x="25" y="2" fill="#000000" width="1" height="1" id="template"></rect>
	<rect x="26" y="2" fill="#000000" width="1" height="1" id="template"></rect>
	<rect x="28" y="2" fill="#000000" width="1" height="1" id="template"></rect>
	<rect x="0" y="3" fill="#000000" width="1" height="1" id="template"></rect>
	<rect x="2" y="3" fill="#000000" width="1" height="1" id="template"></rect>
	<rect x="3" y="3" fill="#000000" width="1" height="1" id="template"></rect>
	<rect x="4" y="3" fill="#000000" width="1" height="1" id="template"></rect>
	<rect x="6" y="3" fill="#000000" width="1" height="1" id="template"></rect>
	<rect x="8" y="3" fill="#000000" width="1" height="1" id="template"></rect>
	<rect x="9" y="3" fill="#000000" width="1" height="1" id="template"></rect>
	<rect x="11" y="3" fill="#000000" width="1" height="1" id="template"></rect>
	<rect x="17" y="3" fill="#000000" width="1" height="1" id="template"></rect>
	<rect x="18" y="3" fill="#000000" width="1" height="1" id="template"></rect>
	<rect x="20" y="3" fill="#000000" width="1" height="1" id="template"></rect>
	<rect x="22" y="3" fill="#000000" width="1" height="1" id="template"></rect>
	<rect x="24" y="3" fill="#000000" width="1" height="1" id="template"></rect>
	<rect x="25" y="3" fill="#000000" width="1" height="1" id="template"></rect>
	<rect x="26" y="3" fill="#000000" width="1" height="1" id="template"></rect>
	<rect x="28" y="3" fill="#000000" width="1" height="1" id="template"></rect>
	<rect x="0" y="4" fill="#000000" width="1" height="1" id="template"></rect>
	<rect x="2" y="4" fill="#000000" width="1" height="1" id="template"></rect>
	<rect x="3" y="4" fill="#000000" width="1" height="1" id="template"></rect>
	<rect x="4" y="4" fill="#000000" width="1" height="1" id="template"></rect>
	<rect x="6" y="4" fill="#000000" width="1" height="1" id="template"></rect>
	<rect x="8" y="4" fill="#000000" width="1" height="1" id="template"></rect>
	<rect x="9" y="4" fill="#000000" width="1" height="1" id="template"></rect>
	<rect x="10" y="4" fill="#000000" width="1" height="1" id="template"></rect>
	<rect x="11" y="4" fill="#000000" width="1" height="1" id="template"></rect>
	<rect x="13" y="4" fill="#000000" width="1" height="1" id="template"></rect>
	<rect x="14" y="4" fill="#000000" width="1" height="1" id="template"></rect>
	<rect x="15" y="4" fill="#000000" width="1" height="1" id="template"></rect>
	<rect x="19" y="4" fill="#000000" width="1" height="1" id="template"></rect>
	<rect x="22" y="4" fill="#000000" width="1" height="1" id="template"></rect>
	<rect x="24" y="4" fill="#000000" width="1" height="1" id="template"></rect>
	<rect x="25" y="4" fill="#000000" width="1" height="1" id="template"></rect>
	<rect x="26" y="4" fill="#000000" width="1" height="1" id="template"></rect>
	<rect x="28" y="4" fill="#000000" width="1" height="1" id="template"></rect>
	<rect x="0" y="5" fill="#000000" width="1" height="1" id="template"></rect>
	<rect x="6" y="5" fill="#000000" width="1" height="1" id="template"></rect>
	<rect x="9" y="5" fill="#000000" width="1" height="1" id="template"></rect>
	<rect x="12" y="5" fill="#000000" width="1" height="1" id="template"></rect>
	<rect x="14" y="5" fill="#000000" width="1" height="1" id="template"></rect>
	<rect x="17" y="5" fill="#000000" width="1" height="1" id="template"></rect>
	<rect x="18" y="5" fill="#000000" width="1" height="1" id="template"></rect>
	<rect x="19" y="5" fill="#000000" width="1" height="1" id="template"></rect>
	<rect x="22" y="5" fill="#000000" width="1" height="1" id="template"></rect>
	<rect x="28" y="5" fill="#000000" width="1" height="1" id="template"></rect>
	<rect x="0" y="6" fill="#000000" width="1" height="1" id="template"></rect>
	<rect x="1" y="6" fill="#000000" width="1" height="1" id="template"></rect>
	<rect x="2" y="6" fill="#000000" width="1" height="1" id="template"></rect>
	<rect x="3" y="6" fill="#000000" width="1" height="1" id="template"></rect>
	<rect x="4" y="6" fill="#000000" width="1" height="1" id="template"></rect>
	<rect x="5" y="6" fill="#000000" width="1" height="1" id="template"></rect>
	<rect x="6" y="6" fill="#000000" width="1" height="1" id="template"></rect>
	<rect x="8" y="6" fill="#000000" width="1" height="1" id="template"></rect>
	<rect x="10" y="6" fill="#000000" width="1" height="1" id="template"></rect>
	<rect x="12" y="6" fill="#000000" width="1" height="1" id="template"></rect>
	<rect x="14" y="6" fill="#000000" width="1" height="1" id="template"></rect>
	<rect x="16" y="6" fill="#000000" width="1" height="1" id="template"></rect>
	<rect x="18" y="6" fill="#000000" width="1" height="1" id="template"></rect>
	<rect x="20" y="6" fill="#000000" width="1" height="1" id="template"></rect>
	<rect x="22" y="6" fill="#000000" width="1" height="1" id="template"></rect>
	<rect x="23" y="6" fill="#000000" width="1" height="1" id="template"></rect>
	<rect x="24" y="6" fill="#000000" width="1" height="1" id="template"></rect>
	<rect x="25" y="6" fill="#000000" width="1" height="1" id="template"></rect>
	<rect x="26" y="6" fill="#000000" width="1" height="1" id="template"></rect>
	<rect x="27" y="6" fill="#000000" width="1" height="1" id="template"></rect>
	<rect x="28" y="6" fill="#000000" width="1" height="1" id="template"></rect>
	<rect x="9" y="7" fill="#000000" width="1" height="1" id="template"></rect>
	<rect x="11" y="7" fill="#000000" width="1" height="1" id="template"></rect>
	<rect x="13" y="7" fill="#000000" width="1" height="1" id="template"></rect>
	<rect x="14" y="7" fill="#000000" width="1" height="1" id="template"></rect>
	<rect x="15" y="7" fill="#000000" width="1" height="1" id="template"></rect>
	<rect x="16" y="7" fill="#000000" width="1" height="1" id="template"></rect>
	<rect x="17" y="7" fill="#000000" width="1" height="1" id="template"></rect>
	<rect x="18" y="7" fill="#000000" width="1" height="1" id="template"></rect>
	<rect x="19" y="7" fill="#000000" width="1" height="1" id="template"></rect>
	<rect x="0" y="8" fill="#000000" width="1" height="1" id="template"></rect>
	<rect x="1" y="8" fill="#000000" width="1" height="1" id="template"></rect>
	<rect x="2" y="8" fill="#000000" width="1" height="1" id="template"></rect>
	<rect x="3" y="8" fill="#000000" width="1" height="1" id="template"></rect>
	<rect x="6" y="8" fill="#000000" width="1" height="1" id="template"></rect>
	<rect x="8" y="8" fill="#000000" width="1" height="1" id="template"></rect>
	<rect x="13" y="8" fill="#000000" width="1" height="1" id="template"></rect>
	<rect x="14" y="8" fill="#000000" width="1" height="1" id="template"></rect>
	<rect x="17" y="8" fill="#000000" width="1" height="1" id="template"></rect>
	<rect x="18" y="8" fill="#000000" width="1" height="1" id="template"></rect>
	<rect x="21" y="8" fill="#000000" width="1" height="1" id="template"></rect>
	<rect x="24" y="8" fill="#000000" width="1" height="1" id="template"></rect>
	<rect x="25" y="8" fill="#000000" width="1" height="1" id="template"></rect>
	<rect x="26" y="8" fill="#000000" width="1" height="1" id="template"></rect>
	<rect x="28" y="8" fill="#000000" width="1" height="1" id="template"></rect>
	<rect x="1" y="9" fill="#000000" width="1" height="1" id="template"></rect>
	<rect x="3" y="9" fill="#000000" width="1" height="1" id="template"></rect>
	<rect x="9" y="9" fill="#000000" width="1" height="1" id="template"></rect>
	<rect x="18" y="9" fill="#000000" width="1" height="1" id="template"></rect>
	<rect x="19" y="9" fill="#000000" width="1" height="1" id="template"></rect>
	<rect x="21" y="9" fill="#000000" width="1" height="1" id="template"></rect>
	<rect x="22" y="9" fill="#000000" width="1" height="1" id="template"></rect>
	<rect x="23" y="9" fill="#000000" width="1" height="1" id="template"></rect>
	<rect x="24" y="9" fill="#000000" width="1" height="1" id="template"></rect>
	<rect x="28" y="9" fill="#000000" width="1" height="1" id="template"></rect>
	<rect x="3" y="10" fill="#000000" width="1" height="1" id="template"></rect>
	<rect x="5" y="10" fill="#000000" width="1" height="1" id="template"></rect>
	<rect x="6" y="10" fill="#000000" width="1" height="1" id="template"></rect>
	<rect x="7" y="10" fill="#000000" width="1" height="1" id="template"></rect>
	<rect x="14" y="10" fill="#000000" width="1" height="1" id="template"></rect>
	<rect x="20" y="10" fill="#000000" width="1" height="1" id="template"></rect>
	<rect x="21" y="10" fill="#000000" width="1" height="1" id="template"></rect>
	<rect x="23" y="10" fill="#000000" width="1" height="1" id="template"></rect>
	<rect x="24" y="10" fill="#000000" width="1" height="1" id="template"></rect>
	<rect x="26" y="10" fill="#000000" width="1" height="1" id="template"></rect>
	<rect x="27" y="10" fill="#000000" width="1" height="1" id="template"></rect>
	<rect x="0" y="11" fill="#000000" width="1" height="1" id="template"></rect>
	<rect x="1" y="11" fill="#000000" width="1" height="1" id="template"></rect>
	<rect x="11" y="11" fill="#000000" width="1" height="1" id="template"></rect>
	<rect x="12" y="11" fill="#000000" width="1" height="1" id="template"></rect>
	<rect x="13" y="11" fill="#000000" width="1" height="1" id="template"></rect>
	<rect x="14" y="11" fill="#000000" width="1" height="1" id="template"></rect>
	<rect x="15" y="11" fill="#000000" width="1" height="1" id="template"></rect>
	<rect x="20" y="11" fill="#000000" width="1" height="1" id="template"></rect>
	<rect x="22" y="11" fill="#000000" width="1" height="1" id="template"></rect>
	<rect x="23" y="11" fill="#000000" width="1" height="1" id="template"></rect>
	<rect x="24" y="11" fill="#000000" width="1" height="1" id="template"></rect>
	<rect x="25" y="11" fill="#000000" width="1" height="1" id="template"></rect>
	<rect x="28" y="11" fill="#000000" width="1" height="1" id="template"></rect>
	<rect x="1" y="12" fill="#000000" width="1" height="1" id="template"></rect>
	<rect x="5" y="12" fill="#000000" width="1" height="1" id="template"></rect>
	<rect x="6" y="12" fill="#000000" width="1" height="1" id="template"></rect>
	<rect x="8" y="12" fill="#000000" width="1" height="1" id="template"></rect>
	<rect x="9" y="12" fill="#000000" width="1" height="1" id="template"></rect>
	<rect x="11" y="12" fill="#000000" width="1" height="1" id="template"></rect>
	<rect x="15" y="12" fill="#000000" width="1" height="1" id="template"></rect>
	<rect x="16" y="12" fill="#000000" width="1" height="1" id="template"></rect>
	<rect x="17" y="12" fill="#000000" width="1" height="1" id="template"></rect>
	<rect x="20" y="12" fill="#000000" width="1" height="1" id="template"></rect>
	<rect x="25" y="12" fill="#000000" width="1" height="1" id="template"></rect>
	<rect x="26" y="12" fill="#000000" width="1" height="1" id="template"></rect>
	<rect x="0" y="13" fill="#000000" width="1" height="1" id="template"></rect>
	<rect x="1" y="13" fill="#000000" width="1" height="1" id="template"></rect>
	<rect x="2" y="13" fill="#000000" width="1" height="1" id="template"></rect>
	<rect x="4" y="13" fill="#000000" width="1" height="1" id="template"></rect>
	<rect x="5" y="13" fill="#000000" width="1" height="1" id="template"></rect>
	<rect x="10" y="13" fill="#000000" width="1" height="1" id="template"></rect>
	<rect x="11" y="13" fill="#000000" width="1" height="1" id="template"></rect>
	<rect x="13" y="13" fill="#000000" width="1" height="1" id="template"></rect>
	<rect x="15" y="13" fill="#000000" width="1" height="1" id="template"></rect>
	<rect x="19" y="13" fill="#000000" width="1" height="1" id="template"></rect>
	<rect x="21" y="13" fill="#000000" width="1" height="1" id="template"></rect>
	<rect x="22" y="13" fill="#000000" width="1" height="1" id="template"></rect>
	<rect x="23" y="13" fill="#000000" width="1" height="1" id="template"></rect>
	<rect x="27" y="13" fill="#000000" width="1" height="1" id="template"></rect>
	<rect x="28" y="13" fill="#000000" width="1" height="1" id="template"></rect>
	<rect x="0" y="14" fill="#000000" width="1" height="1" id="template"></rect>
	<rect x="1" y="14" fill="#000000" width="1" height="1" id="template"></rect>
	<rect x="2" y="14" fill="#000000" width="1" height="1" id="template"></rect>
	<rect x="3" y="14" fill="#000000" width="1" height="1" id="template"></rect>
	<rect x="6" y="14" fill="#000000" width="1" height="1" id="template"></rect>
	<rect x="8" y="14" fill="#000000" width="1" height="1" id="template"></rect>
	<rect x="10" y="14" fill="#000000" width="1" height="1" id="template"></rect>
	<rect x="12" y="14" fill="#000000" width="1" height="1" id="template"></rect>
	<rect x="14" y="14" fill="#000000" width="1" height="1" id="template"></rect>
	<rect x="19" y="14" fill="#000000" width="1" height="1" id="template"></rect>
	<rect x="20" y="14" fill="#000000" width="1" height="1" id="template"></rect>
	<rect x="21" y="14" fill="#000000" width="1" height="1" id="template"></rect>
	<rect x="22" y="14" fill="#000000" width="1" height="1" id="template"></rect>
	<rect x="25" y="14" fill="#000000" width="1" height="1" id="template"></rect>
	<rect x="26" y="14" fill="#000000" width="1" height="1" id="template"></rect>
	<rect x="27" y="14" fill="#000000" width="1" height="1" id="template"></rect>
	<rect x="28" y="14" fill="#000000" width="1" height="1" id="template"></rect>
	<rect x="0" y="15" fill="#000000" width="1" height="1" id="template"></rect>
	<rect x="1" y="15" fill="#000000" width="1" height="1" id="template"></rect>
	<rect x="2" y="15" fill="#000000" width="1" height="1" id="template"></rect>
	<rect x="5" y="15" fill="#000000" width="1" height="1" id="template"></rect>
	<rect x="7" y="15" fill="#000000" width="1" height="1" id="template"></rect>
	<rect x="8" y="15" fill="#000000" width="1" height="1" id="template"></rect>
	<rect x="12" y="15" fill="#000000" width="1" height="1" id="template"></rect>
	<rect x="13" y="15" fill="#000000" width="1" height="1" id="template"></rect>
	<rect x="16" y="15" fill="#000000" width="1" height="1" id="template"></rect>
	<rect x="19" y="15" fill="#000000" width="1" height="1" id="template"></rect>
	<rect x="20" y="15" fill="#000000" width="1" height="1" id="template"></rect>
	<rect x="23" y="15" fill="#000000" width="1" height="1" id="template"></rect>
	<rect x="24" y="15" fill="#000000" width="1" height="1" id="template"></rect>
	<rect x="27" y="15" fill="#000000" width="1" height="1" id="template"></rect>
	<rect x="0" y="16" fill="#000000" width="1" height="1" id="template"></rect>
	<rect x="1" y="16" fill="#000000" width="1" height="1" id="template"></rect>
	<rect x="3" y="16" fill="#000000" width="1" height="1" id="template"></rect>
	<rect x="4" y="16" fill="#000000" width="1" height="1" id="template"></rect>
	<rect x="6" y="16" fill="#000000" width="1" height="1" id="template"></rect>
	<rect x="7" y="16" fill="#000000" width="1" height="1" id="template"></rect>
	<rect x="9" y="16" fill="#000000" width="1" height="1" id="template"></rect>
	<rect x="11" y="16" fill="#000000" width="1" height="1" id="template"></rect>
	<rect x="16" y="16" fill="#000000" width="1" height="1" id="template"></rect>
	<rect x="18" y="16" fill="#000000" width="1" height="1" id="template"></rect>
	<rect x="19" y="16" fill="#000000" width="1" height="1" id="template"></rect>
	<rect x="20" y="16" fill="#000000" width="1" height="1" id="template"></rect>
	<rect x="21" y="16" fill="#000000" width="1" height="1" id="template"></rect>
	<rect x="23" y="16" fill="#000000" width="1" height="1" id="template"></rect>
	<rect x="24" y="16" fill="#000000" width="1" height="1" id="template"></rect>
	<rect x="27" y="16" fill="#000000" width="1" height="1" id="template"></rect>
	<rect x="4" y="17" fill="#000000" width="1" height="1" id="template"></rect>
	<rect x="9" y="17" fill="#000000" width="1" height="1" id="template"></rect>
	<rect x="10" y="17" fill="#000000" width="1" height="1" id="template"></rect>
	<rect x="12" y="17" fill="#000000" width="1" height="1" id="template"></rect>
	<rect x="13" y="17" fill="#000000" width="1" height="1" id="template"></rect>
	<rect x="15" y="17" fill="#000000" width="1" height="1" id="template"></rect>
	<rect x="16" y="17" fill="#000000" width="1" height="1" id="template"></rect>
	<rect x="17" y="17" fill="#000000" width="1" height="1" id="template"></rect>
	<rect x="20" y="17" fill="#000000" width="1" height="1" id="template"></rect>
	<rect x="23" y="17" fill="#000000" width="1" height="1" id="template"></rect>
	<rect x="26" y="17" fill="#000000" width="1" height="1" id="template"></rect>
	<rect x="27" y="17" fill="#000000" width="1" height="1" id="template"></rect>
	<rect x="0" y="18" fill="#000000" width="1" height="1" id="template"></rect>
	<rect x="2" y="18" fill="#000000" width="1" height="1" id="template"></rect>
	<rect x="3" y="18" fill="#000000" width="1" height="1" id="template"></rect>
	<rect x="6" y="18" fill="#000000" width="1" height="1" id="template"></rect>
	<rect x="11" y="18" fill="#000000" width="1" height="1" id="template"></rect>
	<rect x="12" y="18" fill="#000000" width="1" height="1" id="template"></rect>
	<rect x="15" y="18" fill="#000000" width="1" height="1" id="template"></rect>
	<rect x="20" y="18" fill="#000000" width="1" height="1" id="template"></rect>
	<rect x="22" y="18" fill="#000000" width="1" height="1" id="template"></rect>
	<rect x="25" y="18" fill="#000000" width="1" height="1" id="template"></rect>
	<rect x="26" y="18" fill="#000000" width="1" height="1" id="template"></rect>
	<rect x="2" y="19" fill="#000000" width="1" height="1" id="template"></rect>
	<rect x="4" y="19" fill="#000000" width="1" height="1" id="template"></rect>
	<rect x="5" y="19" fill="#000000" width="1" height="1" id="template"></rect>
	<rect x="8" y="19" fill="#000000" width="1" height="1" id="template"></rect>
	<rect x="12" y="19" fill="#000000" width="1" height="1" id="template"></rect>
	<rect x="17" y="19" fill="#000000" width="1" height="1" id="template"></rect>
	<rect x="19" y="19" fill="#000000" width="1" height="1" id="template"></rect>
	<rect x="21" y="19" fill="#000000" width="1" height="1" id="template"></rect>
	<rect x="23" y="19" fill="#000000" width="1" height="1" id="template"></rect>
	<rect x="24" y="19" fill="#000000" width="1" height="1" id="template"></rect>
	<rect x="26" y="19" fill="#000000" width="1" height="1" id="template"></rect>
	<rect x="1" y="20" fill="#000000" width="1" height="1" id="template"></rect>
	<rect x="3" y="20" fill="#000000" width="1" height="1" id="template"></rect>
	<rect x="6" y="20" fill="#000000" width="1" height="1" id="template"></rect>
	<rect x="8" y="20" fill="#000000" width="1" height="1" id="template"></rect>
	<rect x="10" y="20" fill="#000000" width="1" height="1" id="template"></rect>
	<rect x="11" y="20" fill="#000000" width="1" height="1" id="template"></rect>
	<rect x="12" y="20" fill="#000000" width="1" height="1" id="template"></rect>
	<rect x="13" y="20" fill="#000000" width="1" height="1" id="template"></rect>
	<rect x="15" y="20" fill="#000000" width="1" height="1" id="template"></rect>
	<rect x="17" y="20" fill="#000000" width="1" height="1" id="template"></rect>
	<rect x="18" y="20" fill="#000000" width="1" height="1" id="template"></rect>
	<rect x="19" y="20" fill="#000000" width="1" height="1" id="template"></rect>
	<rect x="20" y="20" fill="#000000" width="1" height="1" id="template"></rect>
	<rect x="21" y="20" fill="#000000" width="1" height="1" id="template"></rect>
	<rect x="22" y="20" fill="#000000" width="1" height="1" id="template"></rect>
	<rect x="23" y="20" fill="#000000" width="1" height="1" id="template"></rect>
	<rect x="24" y="20" fill="#000000" width="1" height="1" id="template"></rect>
	<rect x="25" y="20" fill="#000000" width="1" height="1" id="template"></rect>
	<rect x="26" y="20" fill="#000000" width="1" height="1" id="template"></rect>
	<rect x="8" y="21" fill="#000000" width="1" height="1" id="template"></rect>
	<rect x="9" y="21" fill="#000000" width="1" height="1" id="template"></rect>
	<rect x="10" y="21" fill="#000000" width="1" height="1" id="template"></rect>
	<rect x="12" y="21" fill="#000000" width="1" height="1" id="template"></rect>
	<rect x="13" y="21" fill="#000000" width="1" height="1" id="template"></rect>
	<rect x="14" y="21" fill="#000000" width="1" height="1" id="template"></rect>
	<rect x="17" y="21" fill="#000000" width="1" height="1" id="template"></rect>
	<rect x="18" y="21" fill="#000000" width="1" height="1" id="template"></rect>
	<rect x="20" y="21" fill="#000000" width="1" height="1" id="template"></rect>
	<rect x="24" y="21" fill="#000000" width="1" height="1" id="template"></rect>
	<rect x="25" y="21" fill="#000000" width="1" height="1" id="template"></rect>
	<rect x="26" y="21" fill="#000000" width="1" height="1" id="template"></rect>
	<rect x="27" y="21" fill="#000000" width="1" height="1" id="template"></rect>
	<rect x="28" y="21" fill="#000000" width="1" height="1" id="template"></rect>
	<rect x="0" y="22" fill="#000000" width="1" height="1" id="template"></rect>
	<rect x="1" y="22" fill="#000000" width="1" height="1" id="template"></rect>
	<rect x="2" y="22" fill="#000000" width="1" height="1" id="template"></rect>
	<rect x="3" y="22" fill="#000000" width="1" height="1" id="template"></rect>
	<rect x="4" y="22" fill="#000000" width="1" height="1" id="template"></rect>
	<rect x="5" y="22" fill="#000000" width="1" height="1" id="template"></rect>
	<rect x="6" y="22" fill="#000000" width="1" height="1" id="template"></rect>
	<rect x="11" y="22" fill="#000000" width="1" height="1" id="template"></rect>
	<rect x="12" y="22" fill="#000000" width="1" height="1" id="template"></rect>
	<rect x="13" y="22" fill="#000000" width="1" height="1" id="template"></rect>
	<rect x="17" y="22" fill="#000000" width="1" height="1" id="template"></rect>
	<rect x="18" y="22" fill="#000000" width="1" height="1" id="template"></rect>
	<rect x="19" y="22" fill="#000000" width="1" height="1" id="template"></rect>
	<rect x="20" y="22" fill="#000000" width="1" height="1" id="template"></rect>
	<rect x="22" y="22" fill="#000000" width="1" height="1" id="template"></rect>
	<rect x="24" y="22" fill="#000000" width="1" height="1" id="template"></rect>
	<rect x="25" y="22" fill="#000000" width="1" height="1" id="template"></rect>
	<rect x="27" y="22" fill="#000000" width="1" height="1" id="template"></rect>
	<rect x="0" y="23" fill="#000000" width="1" height="1" id="template"></rect>
	<rect x="6" y="23" fill="#000000" width="1" height="1" id="template"></rect>
	<rect x="16" y="23" fill="#000000" width="1" height="1" id="template"></rect>
	<rect x="20" y="23" fill="#000000" width="1" height="1" id="template"></rect>
	<rect x="24" y="23" fill="#000000" width="1" height="1" id="template"></rect>
	<rect x="27" y="23" fill="#000000" width="1" height="1" id="template"></rect>
	<rect x="28" y="23" fill="#000000" width="1" height="1" id="template"></rect>
	<rect x="0" y="24" fill="#000000" width="1" height="1" id="template"></rect>
	<rect x="2" y="24" fill="#000000" width="1" height="1" id="template"></rect>
	<rect x="3" y="24" fill="#000000" width="1" height="1" id="template"></rect>
	<rect x="4" y="24" fill="#000000" width="1" height="1" id="template"></rect>
	<rect x="6" y="24" fill="#000000" width="1" height="1" id="template"></rect>
	<rect x="12" y="24" fill="#000000" width="1" height="1" id="template"></rect>
	<rect x="14" y="24" fill="#000000" width="1" height="1" id="template"></rect>
	<rect x="15" y="24" fill="#000000" width="1" height="1" id="template"></rect>
	<rect x="16" y="24" fill="#000000" width="1" height="1" id="template"></rect>
	<rect x="17" y="24" fill="#000000" width="1" height="1" id="template"></rect>
	<rect x="18" y="24" fill="#000000" width="1" height="1" id="template"></rect>
	<rect x="20" y="24" fill="#000000" width="1" height="1" id="template"></rect>
	<rect x="21" y="24" fill="#000000" width="1" height="1" id="template"></rect>
	<rect x="22" y="24" fill="#000000" width="1" height="1" id="template"></rect>
	<rect x="23" y="24" fill="#000000" width="1" height="1" id="template"></rect>
	<rect x="24" y="24" fill="#000000" width="1" height="1" id="template"></rect>
	<rect x="25" y="24" fill="#000000" width="1" height="1" id="template"></rect>
	<rect x="26" y="24" fill="#000000" width="1" height="1" id="template"></rect>
	<rect x="0" y="25" fill="#000000" width="1" height="1" id="template"></rect>
	<rect x="2" y="25" fill="#000000" width="1" height="1" id="template"></rect>
	<rect x="3" y="25" fill="#000000" width="1" height="1" id="template"></rect>
	<rect x="4" y="25" fill="#000000" width="1" height="1" id="template"></rect>
	<rect x="6" y="25" fill="#000000" width="1" height="1" id="template"></rect>
	<rect x="8" y="25" fill="#000000" width="1" height="1" id="template"></rect>
	<rect x="9" y="25" fill="#000000" width="1" height="1" id="template"></rect>
	<rect x="10" y="25" fill="#000000" width="1" height="1" id="template"></rect>
	<rect x="11" y="25" fill="#000000" width="1" height="1" id="template"></rect>
	<rect x="12" y="25" fill="#000000" width="1" height="1" id="template"></rect>
	<rect x="14" y="25" fill="#000000" width="1" height="1" id="template"></rect>
	<rect x="15" y="25" fill="#000000" width="1" height="1" id="template"></rect>
	<rect x="21" y="25" fill="#000000" width="1" height="1" id="template"></rect>
	<rect x="24" y="25" fill="#000000" width="1" height="1" id="template"></rect>
	<rect x="26" y="25" fill="#000000" width="1" height="1" id="template"></rect>
	<rect x="28" y="25" fill="#000000" width="1" height="1" id="template"></rect>
	<rect x="0" y="26" fill="#000000" width="1" height="1" id="template"></rect>
	<rect x="2" y="26" fill="#000000" width="1" height="1" id="template"></rect>
	<rect x="3" y="26" fill="#000000" width="1" height="1" id="template"></rect>
	<rect x="4" y="26" fill="#000000" width="1" height="1" id="template"></rect>
	<rect x="6" y="26" fill="#000000" width="1" height="1" id="template"></rect>
	<rect x="8" y="26" fill="#000000" width="1" height="1" id="template"></rect>
	<rect x="9" y="26" fill="#000000" width="1" height="1" id="template"></rect>
	<rect x="10" y="26" fill="#000000" width="1" height="1" id="template"></rect>
	<rect x="11" y="26" fill="#000000" width="1" height="1" id="template"></rect>
	<rect x="13" y="26" fill="#000000" width="1" height="1" id="template"></rect>
	<rect x="16" y="26" fill="#000000" width="1" height="1" id="template"></rect>
	<rect x="17" y="26" fill="#000000" width="1" height="1" id="template"></rect>
	<rect x="18" y="26" fill="#000000" width="1" height="1" id="template"></rect>
	<rect x="20" y="26" fill="#000000" width="1" height="1" id="template"></rect>
	<rect x="23" y="26" fill="#000000" width="1" height="1" id="template"></rect>
	<rect x="26" y="26" fill="#000000" width="1" height="1" id="template"></rect>
	<rect x="28" y="26" fill="#000000" width="1" height="1" id="template"></rect>
	<rect x="0" y="27" fill="#000000" width="1" height="1" id="template"></rect>
	<rect x="6" y="27" fill="#000000" width="1" height="1" id="template"></rect>
	<rect x="8" y="27" fill="#000000" width="1" height="1" id="template"></rect>
	<rect x="10" y="27" fill="#000000" width="1" height="1" id="template"></rect>
	<rect x="11" y="27" fill="#000000" width="1" height="1" id="template"></rect>
	<rect x="14" y="27" fill="#000000" width="1" height="1" id="template"></rect>
	<rect x="16" y="27" fill="#000000" width="1" height="1" id="template"></rect>
	<rect x="20" y="27" fill="#000000" width="1" height="1" id="template"></rect>
	<rect x="21" y="27" fill="#000000" width="1" height="1" id="template"></rect>
	<rect x="23" y="27" fill="#000000" width="1" height="1" id="template"></rect>
	<rect x="25" y="27" fill="#000000" width="1" height="1" id="template"></rect>
	<rect x="27" y="27" fill="#000000" width="1" height="1" id="template"></rect>
	<rect x="0" y="28" fill="#000000" width="1" height="1" id="template"></rect>
	<rect x="1" y="28" fill="#000000" width="1" height="1" id="template"></rect>
	<rect x="2" y="28" fill="#000000" width="1" height="1" id="template"></rect>
	<rect x="3" y="28" fill="#000000" width="1" height="1" id="template"></rect>
	<rect x="4" y="28" fill="#000000" width="1" height="1" id="template"></rect>
	<rect x="5" y="28" fill="#000000" width="1" height="1" id="template"></rect>
	<rect x="6" y="28" fill="#000000" width="1" height="1" id="template"></rect>
	<rect x="8" y="28" fill="#000000" width="1" height="1" id="template"></rect>
	<rect x="9" y="28" fill="#000000" width="1" height="1" id="template"></rect>
	<rect x="12" y="28" fill="#000000" width="1" height="1" id="template"></rect>
	<rect x="14" y="28" fill="#000000" width="1" height="1" id="template"></rect>
	<rect x="16" y="28" fill="#000000" width="1" height="1" id="template"></rect>
	<rect x="20" y="28" fill="#000000" width="1" height="1" id="template"></rect>
	<rect x="21" y="28" fill="#000000" width="1" height="1" id="template"></rect>
	<rect x="24" y="28" fill="#000000" width="1" height="1" id="template"></rect>
	<rect x="27" y="28" fill="#000000" width="1" height="1" id="template"></rect>
</svg>
